<svg xmlns="http://www.w3.org/2000/svg" xmlns:xlink="http://www.w3.org/1999/xlink" width="260" zoomAndPan="magnify" viewBox="0 0 194.87999 47.25" height="63" preserveAspectRatio="xMidYMid meet" version="1.0"><defs><g/></defs><g fill="#ffffff" fill-opacity="1"><g transform="translate(22.924378, 35.029087)"><g><path d="M 20.109375 4.328125 C 19.828125 4.023438 19.75 3.007812 19.875 1.28125 C 20 -0.445312 20.289062 -2.316406 20.75 -4.328125 C 21 -5.453125 21.285156 -6.539062 21.609375 -7.59375 C 21.929688 -8.664062 22.40625 -9.992188 23.03125 -11.578125 C 23.363281 -12.429688 23.742188 -13.394531 24.171875 -14.46875 C 24.585938 -15.539062 25.085938 -16.78125 25.671875 -18.1875 C 25.921875 -18.789062 26.132812 -19.332031 26.3125 -19.8125 C 26.488281 -20.3125 26.578125 -20.582031 26.578125 -20.625 C 26.578125 -20.800781 26.222656 -20.539062 25.515625 -19.84375 C 24.816406 -19.144531 24.066406 -18.316406 23.265625 -17.359375 C 22.265625 -16.160156 21.335938 -14.984375 20.484375 -13.828125 C 19.628906 -12.703125 18.625 -11.285156 17.46875 -9.578125 C 16.894531 -8.753906 16.367188 -8.003906 15.890625 -7.328125 C 15.421875 -6.648438 15.132812 -6.273438 15.03125 -6.203125 C 14.832031 -6.003906 14.582031 -5.90625 14.28125 -5.90625 C 13.976562 -5.875 13.738281 -5.957031 13.5625 -6.15625 C 13.238281 -6.507812 13.210938 -7.25 13.484375 -8.375 C 13.785156 -9.507812 14.515625 -11.628906 15.671875 -14.734375 C 16.972656 -18.265625 17.9375 -21.117188 18.5625 -23.296875 C 19.1875 -25.484375 19.347656 -26.578125 19.046875 -26.578125 C 18.878906 -26.578125 18.457031 -26.300781 17.78125 -25.75 C 17.101562 -25.21875 16.398438 -24.578125 15.671875 -23.828125 C 13.742188 -21.898438 11.816406 -19.53125 9.890625 -16.71875 C 7.953125 -13.9375 5.972656 -10.644531 3.953125 -6.84375 C 2.898438 -4.832031 2.171875 -3.515625 1.765625 -2.890625 C 1.367188 -2.285156 0.992188 -1.910156 0.640625 -1.765625 C 0.410156 -1.660156 0.25 -1.625 0.15625 -1.65625 C 0.0507812 -1.65625 -0.0976562 -1.726562 -0.296875 -1.875 C -0.703125 -2.175781 -0.914062 -2.65625 -0.9375 -3.3125 L -0.9375 -3.453125 C -0.9375 -4.128906 -0.785156 -5.207031 -0.484375 -6.6875 C -0.160156 -8.238281 0.273438 -9.867188 0.828125 -11.578125 C 1.347656 -13.304688 2.0625 -15.285156 2.96875 -17.515625 C 3.289062 -18.335938 3.578125 -19.039062 3.828125 -19.625 C 4.054688 -20.195312 4.257812 -20.671875 4.4375 -21.046875 C 4.757812 -21.722656 5.019531 -22.132812 5.21875 -22.28125 C 5.425781 -22.4375 5.675781 -22.476562 5.96875 -22.40625 C 6.394531 -22.28125 6.597656 -22.015625 6.578125 -21.609375 C 6.554688 -21.210938 6.269531 -20.347656 5.71875 -19.015625 C 5.34375 -18.109375 4.976562 -17.191406 4.625 -16.265625 C 4.25 -15.316406 3.898438 -14.390625 3.578125 -13.484375 C 2.972656 -11.835938 2.492188 -10.398438 2.140625 -9.171875 C 1.765625 -7.921875 1.601562 -7.191406 1.65625 -6.984375 C 1.675781 -6.941406 1.800781 -7.109375 2.03125 -7.484375 C 2.257812 -7.878906 2.535156 -8.363281 2.859375 -8.9375 C 4.640625 -12.300781 6.519531 -15.382812 8.5 -18.1875 C 10.476562 -21 12.429688 -23.378906 14.359375 -25.328125 C 15.734375 -26.703125 16.921875 -27.664062 17.921875 -28.21875 C 18.523438 -28.519531 19.039062 -28.671875 19.46875 -28.671875 C 19.789062 -28.671875 20.066406 -28.597656 20.296875 -28.453125 C 20.566406 -28.253906 20.78125 -27.988281 20.9375 -27.65625 C 21.082031 -27.351562 21.144531 -26.941406 21.125 -26.421875 C 21.125 -25.472656 20.847656 -24.070312 20.296875 -22.21875 C 19.765625 -20.382812 18.910156 -17.851562 17.734375 -14.625 C 17.554688 -14.125 17.40625 -13.679688 17.28125 -13.296875 C 17.15625 -12.953125 17.109375 -12.78125 17.140625 -12.78125 C 17.160156 -12.78125 17.296875 -12.929688 17.546875 -13.234375 C 17.773438 -13.554688 18.050781 -13.929688 18.375 -14.359375 C 19.875 -16.359375 21.40625 -18.238281 22.96875 -20 C 24.519531 -21.726562 25.671875 -22.828125 26.421875 -23.296875 C 26.898438 -23.597656 27.335938 -23.765625 27.734375 -23.796875 C 28.140625 -23.796875 28.46875 -23.628906 28.71875 -23.296875 C 28.914062 -23.078125 29.015625 -22.738281 29.015625 -22.28125 C 29.015625 -21.976562 28.953125 -21.617188 28.828125 -21.203125 C 28.597656 -20.191406 27.945312 -18.421875 26.875 -15.890625 C 25.144531 -11.785156 23.90625 -8.40625 23.15625 -5.75 C 22.394531 -3.09375 21.96875 -0.5625 21.875 1.84375 C 21.820312 2.738281 21.769531 3.351562 21.71875 3.6875 C 21.664062 3.988281 21.578125 4.203125 21.453125 4.328125 C 21.253906 4.523438 21.03125 4.625 20.78125 4.625 C 20.507812 4.625 20.285156 4.523438 20.109375 4.328125 Z M 20.109375 4.328125 "/></g></g></g><g fill="#ffffff" fill-opacity="1"><g transform="translate(50.650048, 35.029087)"><g><path d="M 8.53125 -15.265625 C 8.90625 -15.054688 9.066406 -14.765625 9.015625 -14.390625 C 8.992188 -14.046875 8.757812 -13.171875 8.3125 -11.765625 C 7.882812 -10.515625 7.53125 -9.382812 7.25 -8.375 C 7 -7.351562 6.875 -6.640625 6.875 -6.234375 C 6.875 -5.679688 7.273438 -5.832031 8.078125 -6.6875 C 8.878906 -7.539062 10.03125 -9.046875 11.53125 -11.203125 C 11.90625 -11.722656 12.160156 -12.035156 12.296875 -12.140625 C 12.421875 -12.242188 12.628906 -12.28125 12.921875 -12.25 C 13.222656 -12.226562 13.476562 -12.101562 13.6875 -11.875 C 13.8125 -11.726562 13.875 -11.566406 13.875 -11.390625 C 13.875 -11.316406 13.859375 -11.238281 13.828125 -11.15625 C 13.804688 -11.03125 13.582031 -10.65625 13.15625 -10.03125 C 12.726562 -9.40625 12.25 -8.753906 11.71875 -8.078125 C 11.375 -7.597656 11.039062 -7.160156 10.71875 -6.765625 C 10.382812 -6.335938 10.109375 -6 9.890625 -5.75 C 8.984375 -4.75 8.179688 -4.097656 7.484375 -3.796875 C 7.179688 -3.648438 6.90625 -3.578125 6.65625 -3.578125 C 6.300781 -3.578125 5.972656 -3.6875 5.671875 -3.90625 C 5.578125 -4.007812 5.46875 -4.148438 5.34375 -4.328125 C 5.21875 -4.523438 5.128906 -4.695312 5.078125 -4.84375 C 4.953125 -5.21875 4.910156 -5.832031 4.953125 -6.6875 C 5.035156 -7.519531 5.175781 -8.347656 5.375 -9.171875 C 5.476562 -9.492188 5.550781 -9.78125 5.59375 -10.03125 C 5.644531 -10.28125 5.671875 -10.421875 5.671875 -10.453125 C 5.648438 -10.453125 5.539062 -10.375 5.34375 -10.21875 C 5.132812 -10.070312 4.90625 -9.882812 4.65625 -9.65625 C 3.800781 -8.90625 3.015625 -8.34375 2.296875 -7.96875 C 1.585938 -7.5625 1 -7.359375 0.53125 -7.359375 C 0.40625 -7.359375 0.253906 -7.410156 0.078125 -7.515625 C -0.0976562 -7.617188 -0.273438 -7.757812 -0.453125 -7.9375 C -0.722656 -8.207031 -0.882812 -8.414062 -0.9375 -8.5625 C -0.96875 -8.644531 -0.984375 -8.75 -0.984375 -8.875 C -0.984375 -9 -0.96875 -9.160156 -0.9375 -9.359375 C -0.882812 -9.910156 -0.660156 -10.523438 -0.265625 -11.203125 C 0.109375 -11.878906 0.585938 -12.503906 1.171875 -13.078125 C 1.992188 -13.929688 2.804688 -14.492188 3.609375 -14.765625 C 4.378906 -15.066406 5.144531 -15.09375 5.90625 -14.84375 C 6.25 -14.71875 6.472656 -14.664062 6.578125 -14.6875 C 6.679688 -14.6875 6.84375 -14.789062 7.0625 -15 C 7.238281 -15.144531 7.398438 -15.242188 7.546875 -15.296875 C 7.703125 -15.367188 7.84375 -15.40625 7.96875 -15.40625 C 8.070312 -15.40625 8.171875 -15.394531 8.265625 -15.375 C 8.335938 -15.34375 8.425781 -15.304688 8.53125 -15.265625 Z M 4.625 -13 C 4.25 -12.90625 3.910156 -12.769531 3.609375 -12.59375 C 3.328125 -12.394531 2.988281 -12.09375 2.59375 -11.6875 C 2.164062 -11.238281 1.835938 -10.863281 1.609375 -10.5625 C 1.410156 -10.257812 1.3125 -10.019531 1.3125 -9.84375 C 1.3125 -9.695312 1.515625 -9.757812 1.921875 -10.03125 C 2.316406 -10.3125 2.914062 -10.800781 3.71875 -11.5 C 4.34375 -12.050781 4.742188 -12.453125 4.921875 -12.703125 C 5.097656 -12.953125 5.070312 -13.066406 4.84375 -13.046875 L 4.734375 -13.046875 C 4.710938 -13.046875 4.675781 -13.03125 4.625 -13 Z M 4.625 -13 "/></g></g></g><g fill="#ffffff" fill-opacity="1"><g transform="translate(62.709587, 35.029087)"><g><path d="M 7.25 -15.078125 C 7.445312 -15.078125 7.625 -15.050781 7.78125 -15 C 7.90625 -14.914062 8.039062 -14.789062 8.1875 -14.625 C 8.363281 -14.394531 8.46875 -14.101562 8.5 -13.75 L 8.5 -13.109375 C 8.5 -12.535156 8.484375 -11.632812 8.453125 -10.40625 C 8.429688 -9.332031 8.382812 -8.28125 8.3125 -7.25 C 8.226562 -6.226562 8.148438 -5.476562 8.078125 -5 C 7.722656 -2.613281 7.171875 -0.609375 6.421875 1.015625 C 5.648438 2.640625 4.6875 3.941406 3.53125 4.921875 C 2.476562 5.796875 1.335938 6.382812 0.109375 6.6875 C -0.441406 6.84375 -0.976562 6.921875 -1.5 6.921875 C -2.125 6.921875 -2.726562 6.816406 -3.3125 6.609375 C -4.132812 6.304688 -4.757812 5.832031 -5.1875 5.1875 C -5.5625 4.632812 -5.75 4.03125 -5.75 3.375 C -5.75 3.25 -5.738281 3.113281 -5.71875 2.96875 C -5.539062 1.382812 -4.550781 0.00390625 -2.75 -1.171875 C -0.96875 -2.347656 1.035156 -2.9375 3.265625 -2.9375 C 3.890625 -2.9375 4.304688 -2.921875 4.515625 -2.890625 C 4.710938 -2.835938 4.875 -2.738281 5 -2.59375 L 5.21875 -2.375 C 5.300781 -2.320312 5.363281 -2.296875 5.40625 -2.296875 C 5.507812 -2.296875 5.625 -2.632812 5.75 -3.3125 C 5.894531 -3.988281 6.03125 -4.8125 6.15625 -5.78125 C 6.238281 -6.289062 6.300781 -6.816406 6.34375 -7.359375 C 6.394531 -7.910156 6.4375 -8.453125 6.46875 -8.984375 L 6.578125 -11.015625 L 5.109375 -9.546875 C 4.304688 -8.742188 3.59375 -8.15625 2.96875 -7.78125 C 2.34375 -7.40625 1.765625 -7.21875 1.234375 -7.21875 C 0.640625 -7.21875 0.203125 -7.457031 -0.078125 -7.9375 C -0.347656 -8.4375 -0.484375 -9 -0.484375 -9.625 C -0.429688 -10.425781 -0.234375 -11.300781 0.109375 -12.25 C 0.460938 -13.175781 0.789062 -13.71875 1.09375 -13.875 C 1.34375 -14 1.59375 -14.019531 1.84375 -13.9375 C 2.070312 -13.863281 2.25 -13.703125 2.375 -13.453125 C 2.445312 -13.273438 2.484375 -13.113281 2.484375 -12.96875 C 2.453125 -12.8125 2.363281 -12.5625 2.21875 -12.21875 C 1.988281 -11.613281 1.785156 -11.007812 1.609375 -10.40625 C 1.460938 -9.8125 1.425781 -9.472656 1.5 -9.390625 C 1.675781 -9.191406 2.21875 -9.519531 3.125 -10.375 C 4 -11.195312 4.75 -12.085938 5.375 -13.046875 C 5.945312 -13.941406 6.320312 -14.503906 6.5 -14.734375 C 6.65625 -14.960938 6.84375 -15.078125 7.0625 -15.078125 Z M 1.578125 -0.796875 C 0.503906 -0.617188 -0.535156 -0.21875 -1.546875 0.40625 C -2.546875 1.039062 -3.207031 1.71875 -3.53125 2.4375 C -4.007812 3.519531 -3.75 4.273438 -2.75 4.703125 C -1.738281 5.128906 -0.519531 4.988281 0.90625 4.28125 C 1.550781 3.957031 2.203125 3.445312 2.859375 2.75 C 3.535156 2.039062 4.070312 1.285156 4.46875 0.484375 C 4.625 0.160156 4.765625 -0.125 4.890625 -0.375 C 4.984375 -0.65625 5.03125 -0.816406 5.03125 -0.859375 C 5.03125 -0.910156 4.929688 -0.953125 4.734375 -0.984375 C 4.535156 -1.003906 4.273438 -1.015625 3.953125 -1.015625 C 3.617188 -1.015625 3.238281 -0.988281 2.8125 -0.9375 C 2.414062 -0.914062 2.003906 -0.867188 1.578125 -0.796875 Z M 1.578125 -0.796875 "/></g></g></g><g fill="#ffffff" fill-opacity="1"><g transform="translate(72.70285, 35.029087)"><g/></g></g><g fill="#ffffff" fill-opacity="1"><g transform="translate(83.0718, 35.029087)"><g><path d="M 2.140625 -0.296875 C 1.710938 -0.546875 1.425781 -0.945312 1.28125 -1.5 C 1.125 -2.03125 1.046875 -2.894531 1.046875 -4.09375 C 1.046875 -4.695312 1.085938 -5.398438 1.171875 -6.203125 C 1.242188 -7.003906 1.34375 -7.851562 1.46875 -8.75 C 1.71875 -10.457031 2.039062 -12.3125 2.4375 -14.3125 C 2.84375 -16.289062 3.285156 -18.207031 3.765625 -20.0625 C 4.160156 -21.695312 4.421875 -22.789062 4.546875 -23.34375 C 4.648438 -23.894531 4.648438 -24.207031 4.546875 -24.28125 C 4.421875 -24.351562 4.03125 -24.085938 3.375 -23.484375 C 2.707031 -22.910156 1.984375 -22.195312 1.203125 -21.34375 C 0.398438 -20.46875 -0.160156 -19.96875 -0.484375 -19.84375 C -0.785156 -19.71875 -1.097656 -19.851562 -1.421875 -20.25 C -1.578125 -20.457031 -1.65625 -20.609375 -1.65625 -20.703125 L -1.65625 -20.75 C -1.65625 -20.820312 -1.601562 -20.972656 -1.5 -21.203125 C -1.351562 -21.453125 -1.003906 -21.875 -0.453125 -22.46875 C 0.117188 -23.09375 0.722656 -23.695312 1.359375 -24.28125 C 1.773438 -24.675781 2.175781 -25.023438 2.5625 -25.328125 C 2.90625 -25.648438 3.175781 -25.863281 3.375 -25.96875 C 3.976562 -26.320312 4.503906 -26.5 4.953125 -26.5 C 5.410156 -26.5 5.773438 -26.332031 6.046875 -26 C 6.472656 -25.5 6.660156 -24.875 6.609375 -24.125 C 6.585938 -23.375 6.300781 -21.921875 5.75 -19.765625 C 5.476562 -18.765625 5.226562 -17.75 5 -16.71875 C 4.769531 -15.664062 4.546875 -14.640625 4.328125 -13.640625 C 3.953125 -11.734375 3.648438 -9.941406 3.421875 -8.265625 C 3.171875 -6.585938 3.046875 -5.222656 3.046875 -4.171875 C 3.046875 -3.097656 3.109375 -2.5 3.234375 -2.375 C 3.328125 -2.25 3.628906 -2.457031 4.140625 -3 C 4.679688 -3.582031 5.253906 -4.320312 5.859375 -5.21875 C 6.460938 -6.101562 7.300781 -7.457031 8.375 -9.28125 C 8.957031 -10.257812 9.625 -11.410156 10.375 -12.734375 C 11.125 -14.066406 12 -15.625 13 -17.40625 C 13.375 -18.050781 13.789062 -18.765625 14.25 -19.546875 C 14.695312 -20.347656 15.171875 -21.148438 15.671875 -21.953125 C 16.546875 -23.453125 17.398438 -24.863281 18.234375 -26.1875 C 19.054688 -27.519531 19.644531 -28.410156 20 -28.859375 C 20.289062 -29.285156 20.515625 -29.5625 20.671875 -29.6875 C 20.816406 -29.8125 20.992188 -29.875 21.203125 -29.875 C 21.453125 -29.875 21.6875 -29.785156 21.90625 -29.609375 C 22.113281 -29.410156 22.21875 -29.195312 22.21875 -28.96875 C 22.21875 -28.894531 22.085938 -28.644531 21.828125 -28.21875 C 21.609375 -27.820312 21.320312 -27.375 20.96875 -26.875 C 20.769531 -26.570312 20.34375 -25.867188 19.6875 -24.765625 C 19.007812 -23.660156 18.320312 -22.519531 17.625 -21.34375 C 17.144531 -20.570312 16.707031 -19.847656 16.3125 -19.171875 C 15.90625 -18.492188 15.617188 -17.976562 15.453125 -17.625 C 14.273438 -15.539062 13.242188 -13.75 12.359375 -12.25 C 11.515625 -10.75 10.773438 -9.457031 10.140625 -8.375 C 8.960938 -6.394531 8.085938 -4.96875 7.515625 -4.09375 C 6.941406 -3.238281 6.378906 -2.515625 5.828125 -1.921875 C 5.328125 -1.335938 4.8125 -0.875 4.28125 -0.53125 C 3.78125 -0.175781 3.367188 0 3.046875 0 C 2.941406 0 2.800781 -0.0234375 2.625 -0.078125 C 2.425781 -0.148438 2.265625 -0.222656 2.140625 -0.296875 Z M 2.140625 -0.296875 "/></g></g></g><g fill="#ffffff" fill-opacity="1"><g transform="translate(103.095895, 35.029087)"><g><path d="M 5.078125 -15.078125 C 5.472656 -14.921875 5.769531 -14.691406 5.96875 -14.390625 C 6.175781 -14.085938 6.28125 -13.6875 6.28125 -13.1875 C 6.28125 -12.257812 5.925781 -11.382812 5.21875 -10.5625 C 4.539062 -9.707031 3.566406 -8.96875 2.296875 -8.34375 C 1.960938 -8.164062 1.460938 -7.914062 0.796875 -7.59375 C 0.691406 -7.269531 0.675781 -6.984375 0.75 -6.734375 C 0.820312 -6.453125 0.9375 -6.222656 1.09375 -6.046875 C 1.1875 -5.898438 1.347656 -5.8125 1.578125 -5.78125 C 1.773438 -5.738281 2.0625 -5.726562 2.4375 -5.75 C 3.34375 -5.820312 4.4375 -6.257812 5.71875 -7.0625 C 6.988281 -7.863281 8.414062 -9.015625 10 -10.515625 C 10.445312 -10.972656 10.859375 -11.363281 11.234375 -11.6875 C 11.609375 -12.007812 11.832031 -12.1875 11.90625 -12.21875 C 12.164062 -12.289062 12.421875 -12.226562 12.671875 -12.03125 C 12.890625 -11.800781 13 -11.535156 13 -11.234375 C 13 -11.015625 12.898438 -10.773438 12.703125 -10.515625 C 12.503906 -10.265625 12.039062 -9.789062 11.3125 -9.09375 C 9.351562 -7.132812 7.472656 -5.679688 5.671875 -4.734375 C 4.273438 -3.984375 3.070312 -3.609375 2.0625 -3.609375 C 1.789062 -3.609375 1.515625 -3.644531 1.234375 -3.71875 C 0.285156 -3.96875 -0.398438 -4.519531 -0.828125 -5.375 C -1.097656 -5.925781 -1.234375 -6.550781 -1.234375 -7.25 C -1.234375 -7.65625 -1.195312 -8.082031 -1.125 -8.53125 C -0.769531 -10.238281 -0.0195312 -11.753906 1.125 -13.078125 C 2.28125 -14.429688 3.382812 -15.117188 4.4375 -15.140625 L 4.765625 -15.140625 Z M 2.0625 -11.09375 C 1.8125 -10.664062 1.6875 -10.410156 1.6875 -10.328125 C 1.71875 -10.253906 1.894531 -10.304688 2.21875 -10.484375 C 2.769531 -10.765625 3.304688 -11.265625 3.828125 -11.984375 C 4.378906 -12.710938 4.484375 -13.078125 4.140625 -13.078125 C 4.015625 -13.078125 3.6875 -12.828125 3.15625 -12.328125 C 2.65625 -11.828125 2.289062 -11.414062 2.0625 -11.09375 Z M 2.0625 -11.09375 "/></g></g></g><g fill="#ffffff" fill-opacity="1"><g transform="translate(114.629473, 35.029087)"><g><path d="M 11.15625 -24.390625 C 11.15625 -22.835938 10.519531 -20.894531 9.25 -18.5625 C 7.988281 -16.238281 6.394531 -14.070312 4.46875 -12.0625 C 4.019531 -11.582031 3.554688 -11.144531 3.078125 -10.75 C 2.628906 -10.320312 2.316406 -10.054688 2.140625 -9.953125 C 1.742188 -9.703125 1.492188 -9.414062 1.390625 -9.09375 C 1.285156 -8.769531 1.234375 -8.046875 1.234375 -6.921875 C 1.234375 -6.117188 1.3125 -5.488281 1.46875 -5.03125 C 1.644531 -4.601562 1.882812 -4.367188 2.1875 -4.328125 C 2.882812 -4.222656 3.957031 -4.785156 5.40625 -6.015625 C 6.863281 -7.210938 8.191406 -8.765625 9.390625 -10.671875 C 9.742188 -11.222656 10.019531 -11.597656 10.21875 -11.796875 C 10.414062 -11.972656 10.644531 -12.0625 10.90625 -12.0625 C 11.15625 -12.0625 11.363281 -11.960938 11.53125 -11.765625 C 11.6875 -11.585938 11.765625 -11.363281 11.765625 -11.09375 C 11.765625 -10.789062 11.4375 -10.1875 10.78125 -9.28125 C 10.132812 -8.40625 9.410156 -7.503906 8.609375 -6.578125 C 8.160156 -6.097656 7.722656 -5.644531 7.296875 -5.21875 C 6.867188 -4.769531 6.476562 -4.410156 6.125 -4.140625 C 5.09375 -3.253906 4.09375 -2.6875 3.125 -2.4375 C 2.769531 -2.34375 2.429688 -2.296875 2.109375 -2.296875 C 1.578125 -2.296875 1.125 -2.429688 0.75 -2.703125 C -0.28125 -3.378906 -0.78125 -4.832031 -0.75 -7.0625 C -0.75 -9.320312 -0.234375 -11.90625 0.796875 -14.8125 C 0.941406 -15.1875 1.113281 -15.632812 1.3125 -16.15625 C 1.539062 -16.65625 1.78125 -17.195312 2.03125 -17.78125 C 2.53125 -18.832031 3.046875 -19.882812 3.578125 -20.9375 C 4.117188 -21.988281 4.59375 -22.800781 5 -23.375 C 5.726562 -24.5 6.46875 -25.398438 7.21875 -26.078125 C 7.988281 -26.753906 8.625 -27.09375 9.125 -27.09375 C 9.78125 -27.09375 10.285156 -26.867188 10.640625 -26.421875 C 10.984375 -25.972656 11.15625 -25.296875 11.15625 -24.390625 Z M 6.609375 -22.25 C 6.304688 -21.75 5.945312 -21.109375 5.53125 -20.328125 C 5.101562 -19.523438 4.6875 -18.710938 4.28125 -17.890625 C 3.675781 -16.609375 3.175781 -15.441406 2.78125 -14.390625 C 2.351562 -13.335938 2.21875 -12.8125 2.375 -12.8125 C 2.414062 -12.8125 2.550781 -12.9375 2.78125 -13.1875 C 3.03125 -13.414062 3.304688 -13.691406 3.609375 -14.015625 C 4.710938 -15.222656 5.753906 -16.613281 6.734375 -18.1875 C 7.703125 -19.769531 8.375 -21.160156 8.75 -22.359375 C 8.925781 -22.890625 9.039062 -23.453125 9.09375 -24.046875 C 9.144531 -24.679688 9.109375 -25 8.984375 -25 C 8.859375 -25 8.53125 -24.695312 8 -24.09375 C 7.5 -23.507812 7.035156 -22.894531 6.609375 -22.25 Z M 6.609375 -22.25 "/></g></g></g><g fill="#ffffff" fill-opacity="1"><g transform="translate(124.660305, 35.029087)"><g><path d="M 5.484375 -3.796875 C 5.234375 -3.898438 4.992188 -4.113281 4.765625 -4.4375 C 4.546875 -4.757812 4.398438 -5.082031 4.328125 -5.40625 C 4.296875 -5.5625 4.296875 -5.800781 4.328125 -6.125 C 4.328125 -6.476562 4.347656 -6.789062 4.390625 -7.0625 C 4.441406 -7.363281 4.484375 -7.628906 4.515625 -7.859375 C 4.535156 -8.078125 4.535156 -8.203125 4.515625 -8.234375 L 4.203125 -8.046875 C 4.003906 -7.890625 3.78125 -7.710938 3.53125 -7.515625 C 3.050781 -7.140625 2.585938 -6.851562 2.140625 -6.65625 C 1.660156 -6.476562 1.257812 -6.441406 0.9375 -6.546875 C 0.8125 -6.566406 0.675781 -6.628906 0.53125 -6.734375 C 0.351562 -6.859375 0.203125 -6.984375 0.078125 -7.109375 C -0.148438 -7.359375 -0.3125 -7.695312 -0.40625 -8.125 C -0.457031 -8.375 -0.484375 -8.644531 -0.484375 -8.9375 C -0.484375 -9.164062 -0.472656 -9.394531 -0.453125 -9.625 C -0.421875 -9.875 -0.332031 -10.363281 -0.1875 -11.09375 C -0.0078125 -11.84375 0.113281 -12.351562 0.1875 -12.625 C 0.289062 -12.976562 0.378906 -13.28125 0.453125 -13.53125 C 0.546875 -13.757812 0.660156 -13.9375 0.796875 -14.0625 C 0.921875 -14.15625 1.054688 -14.21875 1.203125 -14.25 C 1.328125 -14.269531 1.503906 -14.253906 1.734375 -14.203125 C 1.878906 -14.148438 2.003906 -14.085938 2.109375 -14.015625 C 2.203125 -13.921875 2.265625 -13.796875 2.296875 -13.640625 C 2.316406 -13.492188 2.316406 -13.304688 2.296875 -13.078125 C 2.265625 -12.847656 2.203125 -12.5625 2.109375 -12.21875 C 2.054688 -12.007812 1.953125 -11.582031 1.796875 -10.9375 C 1.648438 -10.28125 1.566406 -9.878906 1.546875 -9.734375 C 1.492188 -9.429688 1.476562 -9.179688 1.5 -8.984375 C 1.53125 -8.804688 1.582031 -8.691406 1.65625 -8.640625 C 1.800781 -8.546875 2.273438 -8.960938 3.078125 -9.890625 C 3.878906 -10.785156 4.570312 -11.710938 5.15625 -12.671875 C 5.75 -13.640625 6.195312 -14.238281 6.5 -14.46875 C 6.625 -14.570312 6.765625 -14.625 6.921875 -14.625 C 7.085938 -14.625 7.273438 -14.5625 7.484375 -14.4375 C 7.578125 -14.351562 7.675781 -14.25 7.78125 -14.125 C 7.882812 -14 7.945312 -13.890625 7.96875 -13.796875 C 7.988281 -13.691406 7.9375 -13.335938 7.8125 -12.734375 C 7.6875 -12.160156 7.523438 -11.507812 7.328125 -10.78125 C 7.097656 -10.0625 6.910156 -9.335938 6.765625 -8.609375 C 6.585938 -7.878906 6.488281 -7.378906 6.46875 -7.109375 C 6.4375 -6.859375 6.410156 -6.492188 6.390625 -6.015625 C 6.515625 -6.160156 6.710938 -6.382812 6.984375 -6.6875 C 7.160156 -6.863281 7.453125 -7.238281 7.859375 -7.8125 C 8.253906 -8.363281 8.65625 -8.941406 9.0625 -9.546875 C 9.4375 -10.171875 9.796875 -10.722656 10.140625 -11.203125 C 10.472656 -11.703125 10.675781 -11.988281 10.75 -12.0625 C 11.019531 -12.363281 11.34375 -12.425781 11.71875 -12.25 C 12.125 -12.070312 12.328125 -11.757812 12.328125 -11.3125 C 12.328125 -11.1875 12.148438 -10.835938 11.796875 -10.265625 C 11.472656 -9.660156 11.097656 -9.019531 10.671875 -8.34375 C 10.441406 -7.96875 10.21875 -7.617188 10 -7.296875 C 9.75 -6.941406 9.523438 -6.640625 9.328125 -6.390625 C 8.546875 -5.359375 7.828125 -4.617188 7.171875 -4.171875 C 6.722656 -3.867188 6.3125 -3.71875 5.9375 -3.71875 C 5.789062 -3.71875 5.640625 -3.742188 5.484375 -3.796875 Z M 5.484375 -3.796875 "/></g></g></g><g fill="#ffffff" fill-opacity="1"><g transform="translate(135.179529, 35.029087)"><g><path d="M -0.15625 -5.59375 C -0.550781 -5.820312 -0.785156 -6.238281 -0.859375 -6.84375 C -0.890625 -7.019531 -0.90625 -7.207031 -0.90625 -7.40625 C -0.90625 -7.90625 -0.828125 -8.503906 -0.671875 -9.203125 C -0.597656 -9.578125 -0.488281 -10.054688 -0.34375 -10.640625 C -0.164062 -11.191406 0.0195312 -11.78125 0.21875 -12.40625 C 0.519531 -13.300781 0.820312 -14.148438 1.125 -14.953125 C 1.40625 -15.734375 1.59375 -16.171875 1.6875 -16.265625 C 1.882812 -16.472656 2.113281 -16.578125 2.375 -16.578125 C 2.5 -16.578125 2.625 -16.550781 2.75 -16.5 C 3.144531 -16.34375 3.34375 -16.054688 3.34375 -15.640625 C 3.34375 -15.554688 3.28125 -15.300781 3.15625 -14.875 C 3.03125 -14.457031 2.878906 -14.007812 2.703125 -13.53125 C 2.304688 -12.40625 1.957031 -11.289062 1.65625 -10.1875 C 1.332031 -9.101562 1.191406 -8.488281 1.234375 -8.34375 C 1.265625 -8.289062 1.40625 -8.414062 1.65625 -8.71875 C 1.925781 -9.019531 2.238281 -9.410156 2.59375 -9.890625 C 4.195312 -11.960938 5.4375 -13.453125 6.3125 -14.359375 C 7.164062 -15.234375 7.90625 -15.757812 8.53125 -15.9375 C 9.101562 -16.082031 9.59375 -15.992188 10 -15.671875 C 10.375 -15.347656 10.5625 -14.847656 10.5625 -14.171875 C 10.5625 -14.015625 10.523438 -13.675781 10.453125 -13.15625 C 10.367188 -12.625 10.265625 -12.070312 10.140625 -11.5 C 9.921875 -10.34375 9.796875 -9.53125 9.765625 -9.0625 C 9.742188 -8.601562 9.804688 -8.375 9.953125 -8.375 C 10.179688 -8.375 10.671875 -8.691406 11.421875 -9.328125 C 12.171875 -9.972656 12.859375 -10.609375 13.484375 -11.234375 C 13.640625 -11.410156 13.78125 -11.550781 13.90625 -11.65625 L 14.25 -11.984375 C 14.71875 -12.335938 15.09375 -12.273438 15.375 -11.796875 C 15.519531 -11.578125 15.59375 -11.351562 15.59375 -11.125 C 15.59375 -10.925781 15.53125 -10.738281 15.40625 -10.5625 C 13.976562 -8.957031 12.851562 -7.878906 12.03125 -7.328125 C 11.195312 -6.773438 10.617188 -6.460938 10.296875 -6.390625 C 9.921875 -6.316406 9.644531 -6.289062 9.46875 -6.3125 C 9.320312 -6.3125 9.132812 -6.390625 8.90625 -6.546875 C 8.300781 -6.867188 7.953125 -7.40625 7.859375 -8.15625 C 7.734375 -8.90625 7.820312 -10.03125 8.125 -11.53125 C 8.21875 -12.039062 8.289062 -12.484375 8.34375 -12.859375 C 8.394531 -13.203125 8.394531 -13.398438 8.34375 -13.453125 C 8.269531 -13.523438 7.941406 -13.25 7.359375 -12.625 C 6.785156 -11.976562 6.050781 -11.050781 5.15625 -9.84375 C 3.675781 -7.894531 2.554688 -6.617188 1.796875 -6.015625 C 1.328125 -5.640625 0.890625 -5.453125 0.484375 -5.453125 C 0.265625 -5.453125 0.0507812 -5.5 -0.15625 -5.59375 Z M -0.15625 -5.59375 "/></g></g></g><g fill="#ffffff" fill-opacity="1"><g transform="translate(149.079932, 35.029087)"><g><path d="M 0.59375 -1.09375 C 0.46875 -1.113281 0.304688 -1.1875 0.109375 -1.3125 C -0.0859375 -1.414062 -0.257812 -1.554688 -0.40625 -1.734375 C -0.738281 -2.054688 -0.976562 -2.519531 -1.125 -3.125 C -1.226562 -3.519531 -1.28125 -3.941406 -1.28125 -4.390625 C -1.28125 -4.640625 -1.265625 -4.894531 -1.234375 -5.15625 C -1.191406 -5.601562 -1.082031 -6.191406 -0.90625 -6.921875 C -0.75 -7.640625 -0.546875 -8.441406 -0.296875 -9.328125 C 0.148438 -10.921875 0.703125 -12.671875 1.359375 -14.578125 C 2.003906 -16.460938 2.65625 -18.144531 3.3125 -19.625 C 3.53125 -20.144531 3.703125 -20.59375 3.828125 -20.96875 C 3.953125 -21.34375 4.003906 -21.546875 3.984375 -21.578125 C 3.960938 -21.597656 3.835938 -21.597656 3.609375 -21.578125 C 3.378906 -21.546875 3.101562 -21.503906 2.78125 -21.453125 C 2.476562 -21.410156 2.140625 -21.363281 1.765625 -21.3125 C 1.390625 -21.238281 1.078125 -21.1875 0.828125 -21.15625 C 0.453125 -21.132812 0.203125 -21.132812 0.078125 -21.15625 C -0.0234375 -21.207031 -0.148438 -21.332031 -0.296875 -21.53125 C -0.421875 -21.726562 -0.484375 -21.878906 -0.484375 -21.984375 C -0.515625 -22.085938 -0.46875 -22.226562 -0.34375 -22.40625 C -0.1875 -22.675781 0.0859375 -22.882812 0.484375 -23.03125 C 0.890625 -23.15625 1.644531 -23.304688 2.75 -23.484375 C 3.21875 -23.566406 3.65625 -23.644531 4.0625 -23.71875 C 4.457031 -23.789062 4.707031 -23.828125 4.8125 -23.828125 C 4.9375 -23.847656 5.097656 -24.023438 5.296875 -24.359375 C 5.492188 -24.679688 5.769531 -25.207031 6.125 -25.9375 C 6.570312 -26.863281 6.875 -27.4375 7.03125 -27.65625 C 7.175781 -27.863281 7.375 -27.976562 7.625 -28 L 7.734375 -28 C 7.992188 -28 8.207031 -27.921875 8.375 -27.765625 C 8.582031 -27.617188 8.6875 -27.394531 8.6875 -27.09375 C 8.6875 -27 8.632812 -26.8125 8.53125 -26.53125 C 8.425781 -26.28125 8.3125 -26.019531 8.1875 -25.75 L 7.8125 -25 L 7.59375 -24.421875 L 7.484375 -24.09375 L 9.625 -24.09375 C 10.769531 -24.09375 11.492188 -24.03125 11.796875 -23.90625 C 12.128906 -23.78125 12.296875 -23.488281 12.296875 -23.03125 C 12.296875 -22.65625 12.117188 -22.40625 11.765625 -22.28125 C 11.441406 -22.15625 10.765625 -22.09375 9.734375 -22.09375 C 9.234375 -22.09375 8.734375 -22.082031 8.234375 -22.0625 C 7.734375 -22.03125 7.378906 -22.003906 7.171875 -21.984375 C 7.023438 -21.960938 6.789062 -21.925781 6.46875 -21.875 C 6.257812 -21.425781 5.96875 -20.757812 5.59375 -19.875 C 5.425781 -19.5 5.210938 -18.988281 4.953125 -18.34375 C 4.703125 -17.6875 4.429688 -16.972656 4.140625 -16.203125 C 3.609375 -14.773438 3.066406 -13.296875 2.515625 -11.765625 C 1.960938 -10.234375 1.585938 -9.066406 1.390625 -8.265625 C 1.265625 -7.765625 1.148438 -7.210938 1.046875 -6.609375 C 0.953125 -6.035156 0.890625 -5.484375 0.859375 -4.953125 C 0.835938 -4.203125 0.828125 -3.726562 0.828125 -3.53125 C 0.847656 -3.332031 0.9375 -3.207031 1.09375 -3.15625 C 1.539062 -2.976562 2.566406 -3.59375 4.171875 -5 C 5.753906 -6.40625 7.394531 -8.171875 9.09375 -10.296875 C 9.84375 -11.203125 10.359375 -11.789062 10.640625 -12.0625 C 10.890625 -12.34375 11.113281 -12.484375 11.3125 -12.484375 C 11.582031 -12.484375 11.820312 -12.378906 12.03125 -12.171875 C 12.226562 -11.972656 12.328125 -11.75 12.328125 -11.5 C 12.328125 -11.394531 12.226562 -11.195312 12.03125 -10.90625 C 11.851562 -10.601562 11.601562 -10.238281 11.28125 -9.8125 C 10.675781 -9.03125 9.921875 -8.128906 9.015625 -7.109375 C 8.085938 -6.078125 7.195312 -5.148438 6.34375 -4.328125 C 5.070312 -3.046875 4 -2.164062 3.125 -1.6875 C 2.394531 -1.289062 1.691406 -1.09375 1.015625 -1.09375 Z M 0.59375 -1.09375 "/></g></g></g><g fill="#ffffff" fill-opacity="1"><g transform="translate(159.862137, 35.029087)"><g><path d="M 8.53125 -15.265625 C 8.90625 -15.054688 9.066406 -14.765625 9.015625 -14.390625 C 8.992188 -14.046875 8.757812 -13.171875 8.3125 -11.765625 C 7.882812 -10.515625 7.53125 -9.382812 7.25 -8.375 C 7 -7.351562 6.875 -6.640625 6.875 -6.234375 C 6.875 -5.679688 7.273438 -5.832031 8.078125 -6.6875 C 8.878906 -7.539062 10.03125 -9.046875 11.53125 -11.203125 C 11.90625 -11.722656 12.160156 -12.035156 12.296875 -12.140625 C 12.421875 -12.242188 12.628906 -12.28125 12.921875 -12.25 C 13.222656 -12.226562 13.476562 -12.101562 13.6875 -11.875 C 13.8125 -11.726562 13.875 -11.566406 13.875 -11.390625 C 13.875 -11.316406 13.859375 -11.238281 13.828125 -11.15625 C 13.804688 -11.03125 13.582031 -10.65625 13.15625 -10.03125 C 12.726562 -9.40625 12.25 -8.753906 11.71875 -8.078125 C 11.375 -7.597656 11.039062 -7.160156 10.71875 -6.765625 C 10.382812 -6.335938 10.109375 -6 9.890625 -5.75 C 8.984375 -4.75 8.179688 -4.097656 7.484375 -3.796875 C 7.179688 -3.648438 6.90625 -3.578125 6.65625 -3.578125 C 6.300781 -3.578125 5.972656 -3.6875 5.671875 -3.90625 C 5.578125 -4.007812 5.46875 -4.148438 5.34375 -4.328125 C 5.21875 -4.523438 5.128906 -4.695312 5.078125 -4.84375 C 4.953125 -5.21875 4.910156 -5.832031 4.953125 -6.6875 C 5.035156 -7.519531 5.175781 -8.347656 5.375 -9.171875 C 5.476562 -9.492188 5.550781 -9.78125 5.59375 -10.03125 C 5.644531 -10.28125 5.671875 -10.421875 5.671875 -10.453125 C 5.648438 -10.453125 5.539062 -10.375 5.34375 -10.21875 C 5.132812 -10.070312 4.90625 -9.882812 4.65625 -9.65625 C 3.800781 -8.90625 3.015625 -8.34375 2.296875 -7.96875 C 1.585938 -7.5625 1 -7.359375 0.53125 -7.359375 C 0.40625 -7.359375 0.253906 -7.410156 0.078125 -7.515625 C -0.0976562 -7.617188 -0.273438 -7.757812 -0.453125 -7.9375 C -0.722656 -8.207031 -0.882812 -8.414062 -0.9375 -8.5625 C -0.96875 -8.644531 -0.984375 -8.75 -0.984375 -8.875 C -0.984375 -9 -0.96875 -9.160156 -0.9375 -9.359375 C -0.882812 -9.910156 -0.660156 -10.523438 -0.265625 -11.203125 C 0.109375 -11.878906 0.585938 -12.503906 1.171875 -13.078125 C 1.992188 -13.929688 2.804688 -14.492188 3.609375 -14.765625 C 4.378906 -15.066406 5.144531 -15.09375 5.90625 -14.84375 C 6.25 -14.71875 6.472656 -14.664062 6.578125 -14.6875 C 6.679688 -14.6875 6.84375 -14.789062 7.0625 -15 C 7.238281 -15.144531 7.398438 -15.242188 7.546875 -15.296875 C 7.703125 -15.367188 7.84375 -15.40625 7.96875 -15.40625 C 8.070312 -15.40625 8.171875 -15.394531 8.265625 -15.375 C 8.335938 -15.34375 8.425781 -15.304688 8.53125 -15.265625 Z M 4.625 -13 C 4.25 -12.90625 3.910156 -12.769531 3.609375 -12.59375 C 3.328125 -12.394531 2.988281 -12.09375 2.59375 -11.6875 C 2.164062 -11.238281 1.835938 -10.863281 1.609375 -10.5625 C 1.410156 -10.257812 1.3125 -10.019531 1.3125 -9.84375 C 1.3125 -9.695312 1.515625 -9.757812 1.921875 -10.03125 C 2.316406 -10.3125 2.914062 -10.800781 3.71875 -11.5 C 4.34375 -12.050781 4.742188 -12.453125 4.921875 -12.703125 C 5.097656 -12.953125 5.070312 -13.066406 4.84375 -13.046875 L 4.734375 -13.046875 C 4.710938 -13.046875 4.675781 -13.03125 4.625 -13 Z M 4.625 -13 "/></g></g></g><g fill="#ffffff" fill-opacity="1"><g transform="translate(70.379504, 41.550695)"><g><path d="M 3.359375 0 L 2.15625 0 L 0.0625 -5.6875 L 1.296875 -5.6875 L 2.46875 -2.03125 C 2.539062 -1.789062 2.640625 -1.429688 2.765625 -0.953125 L 2.859375 -1.3125 L 3.0625 -2.03125 L 4.21875 -5.6875 L 5.453125 -5.6875 Z M 3.359375 0 "/></g></g></g><g fill="#ffffff" fill-opacity="1"><g transform="translate(77.507261, 41.550695)"><g><path d="M 0.546875 0 L 0.546875 -5.6875 L 1.75 -5.6875 L 1.75 0 Z M 0.546875 0 "/></g></g></g><g fill="#ffffff" fill-opacity="1"><g transform="translate(81.420806, 41.550695)"><g><path d="M 4.453125 0 L 3.140625 -2.15625 L 1.75 -2.15625 L 1.75 0 L 0.546875 0 L 0.546875 -5.6875 L 3.390625 -5.6875 C 4.066406 -5.6875 4.585938 -5.539062 4.953125 -5.25 C 5.328125 -4.957031 5.515625 -4.535156 5.515625 -3.984375 C 5.515625 -3.585938 5.398438 -3.242188 5.171875 -2.953125 C 4.953125 -2.671875 4.648438 -2.484375 4.265625 -2.390625 L 5.796875 0 Z M 4.3125 -3.9375 C 4.3125 -4.488281 3.960938 -4.765625 3.265625 -4.765625 L 1.75 -4.765625 L 1.75 -3.078125 L 3.296875 -3.078125 C 3.628906 -3.078125 3.878906 -3.148438 4.046875 -3.296875 C 4.222656 -3.453125 4.3125 -3.664062 4.3125 -3.9375 Z M 4.3125 -3.9375 "/></g></g></g><g fill="#ffffff" fill-opacity="1"><g transform="translate(89.004278, 41.550695)"><g><path d="M 3.125 -4.765625 L 3.125 0 L 1.921875 0 L 1.921875 -4.765625 L 0.09375 -4.765625 L 0.09375 -5.6875 L 4.953125 -5.6875 L 4.953125 -4.765625 Z M 3.125 -4.765625 "/></g></g></g><g fill="#ffffff" fill-opacity="1"><g transform="translate(95.668253, 41.550695)"><g><path d="M 2.921875 0.078125 C 2.140625 0.078125 1.539062 -0.109375 1.125 -0.484375 C 0.707031 -0.867188 0.5 -1.414062 0.5 -2.125 L 0.5 -5.6875 L 1.6875 -5.6875 L 1.6875 -2.21875 C 1.6875 -1.769531 1.789062 -1.429688 2 -1.203125 C 2.21875 -0.972656 2.535156 -0.859375 2.953125 -0.859375 C 3.378906 -0.859375 3.707031 -0.976562 3.9375 -1.21875 C 4.164062 -1.457031 4.28125 -1.804688 4.28125 -2.265625 L 4.28125 -5.6875 L 5.46875 -5.6875 L 5.46875 -2.1875 C 5.46875 -1.46875 5.242188 -0.910156 4.796875 -0.515625 C 4.347656 -0.117188 3.722656 0.078125 2.921875 0.078125 Z M 2.921875 0.078125 "/></g></g></g><g fill="#ffffff" fill-opacity="1"><g transform="translate(103.251726, 41.550695)"><g><path d="M 4.578125 0 L 4.0625 -1.453125 L 1.90625 -1.453125 L 1.390625 0 L 0.203125 0 L 2.28125 -5.6875 L 3.6875 -5.6875 L 5.75 0 Z M 2.984375 -4.8125 L 2.953125 -4.71875 C 2.929688 -4.625 2.898438 -4.515625 2.859375 -4.390625 C 2.828125 -4.265625 2.597656 -3.582031 2.171875 -2.34375 L 3.796875 -2.34375 L 3.234375 -3.984375 L 3.0625 -4.53125 Z M 2.984375 -4.8125 "/></g></g></g><g fill="#ffffff" fill-opacity="1"><g transform="translate(110.8352, 41.550695)"><g><path d="M 0.546875 0 L 0.546875 -5.6875 L 1.75 -5.6875 L 1.75 -0.921875 L 4.796875 -0.921875 L 4.796875 0 Z M 0.546875 0 "/></g></g></g><g fill="#ffffff" fill-opacity="1"><g transform="translate(117.499175, 41.550695)"><g/></g></g><g fill="#ffffff" fill-opacity="1"><g transform="translate(121.412718, 41.550695)"><g><path d="M 5.1875 -1.640625 C 5.1875 -1.078125 4.976562 -0.648438 4.5625 -0.359375 C 4.15625 -0.0664062 3.550781 0.078125 2.75 0.078125 C 2.019531 0.078125 1.445312 -0.046875 1.03125 -0.296875 C 0.625 -0.554688 0.359375 -0.953125 0.234375 -1.484375 L 1.390625 -1.671875 C 1.460938 -1.367188 1.613281 -1.148438 1.84375 -1.015625 C 2.070312 -0.878906 2.382812 -0.8125 2.78125 -0.8125 C 3.613281 -0.8125 4.03125 -1.0625 4.03125 -1.5625 C 4.03125 -1.726562 3.984375 -1.863281 3.890625 -1.96875 C 3.796875 -2.070312 3.660156 -2.160156 3.484375 -2.234375 C 3.304688 -2.304688 2.972656 -2.390625 2.484375 -2.484375 C 2.054688 -2.585938 1.757812 -2.664062 1.59375 -2.71875 C 1.425781 -2.78125 1.273438 -2.851562 1.140625 -2.9375 C 1.003906 -3.019531 0.890625 -3.117188 0.796875 -3.234375 C 0.703125 -3.347656 0.628906 -3.484375 0.578125 -3.640625 C 0.523438 -3.796875 0.5 -3.976562 0.5 -4.1875 C 0.5 -4.695312 0.691406 -5.085938 1.078125 -5.359375 C 1.460938 -5.628906 2.023438 -5.765625 2.765625 -5.765625 C 3.472656 -5.765625 4.003906 -5.65625 4.359375 -5.4375 C 4.710938 -5.21875 4.941406 -4.851562 5.046875 -4.34375 L 3.890625 -4.1875 C 3.828125 -4.4375 3.703125 -4.617188 3.515625 -4.734375 C 3.335938 -4.859375 3.082031 -4.921875 2.75 -4.921875 C 2.019531 -4.921875 1.65625 -4.695312 1.65625 -4.25 C 1.65625 -4.101562 1.691406 -3.984375 1.765625 -3.890625 C 1.847656 -3.796875 1.960938 -3.710938 2.109375 -3.640625 C 2.265625 -3.578125 2.570312 -3.492188 3.03125 -3.390625 C 3.582031 -3.273438 3.972656 -3.171875 4.203125 -3.078125 C 4.441406 -2.984375 4.628906 -2.867188 4.765625 -2.734375 C 4.898438 -2.597656 5.003906 -2.441406 5.078125 -2.265625 C 5.148438 -2.085938 5.1875 -1.878906 5.1875 -1.640625 Z M 5.1875 -1.640625 "/></g></g></g><g fill="#ffffff" fill-opacity="1"><g transform="translate(128.540473, 41.550695)"><g><path d="M 0.546875 0 L 0.546875 -5.6875 L 5.03125 -5.6875 L 5.03125 -4.765625 L 1.75 -4.765625 L 1.75 -3.34375 L 4.78125 -3.34375 L 4.78125 -2.421875 L 1.75 -2.421875 L 1.75 -0.921875 L 5.1875 -0.921875 L 5.1875 0 Z M 0.546875 0 "/></g></g></g><g fill="#ffffff" fill-opacity="1"><g transform="translate(135.668227, 41.550695)"><g><path d="M 4.453125 0 L 3.140625 -2.15625 L 1.75 -2.15625 L 1.75 0 L 0.546875 0 L 0.546875 -5.6875 L 3.390625 -5.6875 C 4.066406 -5.6875 4.585938 -5.539062 4.953125 -5.25 C 5.328125 -4.957031 5.515625 -4.535156 5.515625 -3.984375 C 5.515625 -3.585938 5.398438 -3.242188 5.171875 -2.953125 C 4.953125 -2.671875 4.648438 -2.484375 4.265625 -2.390625 L 5.796875 0 Z M 4.3125 -3.9375 C 4.3125 -4.488281 3.960938 -4.765625 3.265625 -4.765625 L 1.75 -4.765625 L 1.75 -3.078125 L 3.296875 -3.078125 C 3.628906 -3.078125 3.878906 -3.148438 4.046875 -3.296875 C 4.222656 -3.453125 4.3125 -3.664062 4.3125 -3.9375 Z M 4.3125 -3.9375 "/></g></g></g><g fill="#ffffff" fill-opacity="1"><g transform="translate(143.251698, 41.550695)"><g><path d="M 3.359375 0 L 2.15625 0 L 0.0625 -5.6875 L 1.296875 -5.6875 L 2.46875 -2.03125 C 2.539062 -1.789062 2.640625 -1.429688 2.765625 -0.953125 L 2.859375 -1.3125 L 3.0625 -2.03125 L 4.21875 -5.6875 L 5.453125 -5.6875 Z M 3.359375 0 "/></g></g></g><g fill="#ffffff" fill-opacity="1"><g transform="translate(150.379452, 41.550695)"><g><path d="M 0.546875 0 L 0.546875 -5.6875 L 1.75 -5.6875 L 1.75 0 Z M 0.546875 0 "/></g></g></g><g fill="#ffffff" fill-opacity="1"><g transform="translate(154.292996, 41.550695)"><g><path d="M 3.203125 -0.859375 C 3.921875 -0.859375 4.421875 -1.21875 4.703125 -1.9375 L 5.75 -1.546875 C 5.519531 -0.992188 5.1875 -0.582031 4.75 -0.3125 C 4.320312 -0.0507812 3.804688 0.078125 3.203125 0.078125 C 2.296875 0.078125 1.59375 -0.175781 1.09375 -0.6875 C 0.59375 -1.207031 0.34375 -1.9375 0.34375 -2.875 C 0.34375 -3.800781 0.582031 -4.515625 1.0625 -5.015625 C 1.539062 -5.515625 2.238281 -5.765625 3.15625 -5.765625 C 3.820312 -5.765625 4.363281 -5.628906 4.78125 -5.359375 C 5.207031 -5.097656 5.503906 -4.707031 5.671875 -4.1875 L 4.625 -3.90625 C 4.53125 -4.1875 4.351562 -4.410156 4.09375 -4.578125 C 3.832031 -4.742188 3.53125 -4.828125 3.1875 -4.828125 C 2.644531 -4.828125 2.234375 -4.660156 1.953125 -4.328125 C 1.671875 -3.992188 1.53125 -3.507812 1.53125 -2.875 C 1.53125 -2.21875 1.671875 -1.71875 1.953125 -1.375 C 2.242188 -1.03125 2.660156 -0.859375 3.203125 -0.859375 Z M 3.203125 -0.859375 "/></g></g></g><g fill="#ffffff" fill-opacity="1"><g transform="translate(161.876472, 41.550695)"><g><path d="M 0.546875 0 L 0.546875 -5.6875 L 5.03125 -5.6875 L 5.03125 -4.765625 L 1.75 -4.765625 L 1.75 -3.34375 L 4.78125 -3.34375 L 4.78125 -2.421875 L 1.75 -2.421875 L 1.75 -0.921875 L 5.1875 -0.921875 L 5.1875 0 Z M 0.546875 0 "/></g></g></g><g fill="#ffffff" fill-opacity="1"><g transform="translate(169.004231, 41.550695)"><g><path d="M 5.1875 -1.640625 C 5.1875 -1.078125 4.976562 -0.648438 4.5625 -0.359375 C 4.15625 -0.0664062 3.550781 0.078125 2.75 0.078125 C 2.019531 0.078125 1.445312 -0.046875 1.03125 -0.296875 C 0.625 -0.554688 0.359375 -0.953125 0.234375 -1.484375 L 1.390625 -1.671875 C 1.460938 -1.367188 1.613281 -1.148438 1.84375 -1.015625 C 2.070312 -0.878906 2.382812 -0.8125 2.78125 -0.8125 C 3.613281 -0.8125 4.03125 -1.0625 4.03125 -1.5625 C 4.03125 -1.726562 3.984375 -1.863281 3.890625 -1.96875 C 3.796875 -2.070312 3.660156 -2.160156 3.484375 -2.234375 C 3.304688 -2.304688 2.972656 -2.390625 2.484375 -2.484375 C 2.054688 -2.585938 1.757812 -2.664062 1.59375 -2.71875 C 1.425781 -2.78125 1.273438 -2.851562 1.140625 -2.9375 C 1.003906 -3.019531 0.890625 -3.117188 0.796875 -3.234375 C 0.703125 -3.347656 0.628906 -3.484375 0.578125 -3.640625 C 0.523438 -3.796875 0.5 -3.976562 0.5 -4.1875 C 0.5 -4.695312 0.691406 -5.085938 1.078125 -5.359375 C 1.460938 -5.628906 2.023438 -5.765625 2.765625 -5.765625 C 3.472656 -5.765625 4.003906 -5.65625 4.359375 -5.4375 C 4.710938 -5.21875 4.941406 -4.851562 5.046875 -4.34375 L 3.890625 -4.1875 C 3.828125 -4.4375 3.703125 -4.617188 3.515625 -4.734375 C 3.335938 -4.859375 3.082031 -4.921875 2.75 -4.921875 C 2.019531 -4.921875 1.65625 -4.695312 1.65625 -4.25 C 1.65625 -4.101562 1.691406 -3.984375 1.765625 -3.890625 C 1.847656 -3.796875 1.960938 -3.710938 2.109375 -3.640625 C 2.265625 -3.578125 2.570312 -3.492188 3.03125 -3.390625 C 3.582031 -3.273438 3.972656 -3.171875 4.203125 -3.078125 C 4.441406 -2.984375 4.628906 -2.867188 4.765625 -2.734375 C 4.898438 -2.597656 5.003906 -2.441406 5.078125 -2.265625 C 5.148438 -2.085938 5.1875 -1.878906 5.1875 -1.640625 Z M 5.1875 -1.640625 "/></g></g></g></svg>