<svg xmlns="http://www.w3.org/2000/svg" xmlns:xlink="http://www.w3.org/1999/xlink" width="145" zoomAndPan="magnify" viewBox="0 0 108.75 30.000001" height="40" preserveAspectRatio="xMidYMid meet" version="1.0"><defs><g/></defs><g fill="#271a4c" fill-opacity="1"><g transform="translate(7.741953, 21.864889)"><g><path d="M 12.546875 2.703125 C 12.378906 2.515625 12.332031 1.878906 12.40625 0.796875 C 12.488281 -0.285156 12.671875 -1.453125 12.953125 -2.703125 C 13.109375 -3.398438 13.285156 -4.078125 13.484375 -4.734375 C 13.691406 -5.410156 13.988281 -6.238281 14.375 -7.21875 C 14.582031 -7.75 14.816406 -8.351562 15.078125 -9.03125 C 15.347656 -9.695312 15.660156 -10.46875 16.015625 -11.34375 C 16.171875 -11.71875 16.304688 -12.054688 16.421875 -12.359375 C 16.523438 -12.671875 16.578125 -12.84375 16.578125 -12.875 C 16.578125 -12.988281 16.359375 -12.828125 15.921875 -12.390625 C 15.484375 -11.941406 15.015625 -11.421875 14.515625 -10.828125 C 13.890625 -10.078125 13.3125 -9.34375 12.78125 -8.625 C 12.25 -7.925781 11.625 -7.046875 10.90625 -5.984375 C 10.539062 -5.460938 10.210938 -4.992188 9.921875 -4.578125 C 9.617188 -4.148438 9.4375 -3.914062 9.375 -3.875 C 9.25 -3.75 9.09375 -3.6875 8.90625 -3.6875 C 8.71875 -3.664062 8.570312 -3.71875 8.46875 -3.84375 C 8.257812 -4.0625 8.242188 -4.523438 8.421875 -5.234375 C 8.609375 -5.929688 9.0625 -7.25 9.78125 -9.1875 C 10.59375 -11.394531 11.191406 -13.179688 11.578125 -14.546875 C 11.972656 -15.898438 12.078125 -16.578125 11.890625 -16.578125 C 11.773438 -16.578125 11.507812 -16.40625 11.09375 -16.0625 C 10.664062 -15.738281 10.226562 -15.34375 9.78125 -14.875 C 8.570312 -13.664062 7.367188 -12.1875 6.171875 -10.4375 C 4.960938 -8.695312 3.726562 -6.640625 2.46875 -4.265625 C 1.8125 -3.015625 1.359375 -2.195312 1.109375 -1.8125 C 0.859375 -1.4375 0.625 -1.203125 0.40625 -1.109375 C 0.257812 -1.046875 0.15625 -1.019531 0.09375 -1.03125 C 0.03125 -1.03125 -0.0625 -1.078125 -0.1875 -1.171875 C -0.4375 -1.359375 -0.570312 -1.65625 -0.59375 -2.0625 L -0.59375 -2.15625 C -0.59375 -2.582031 -0.5 -3.253906 -0.3125 -4.171875 C -0.101562 -5.140625 0.171875 -6.15625 0.515625 -7.21875 C 0.847656 -8.300781 1.296875 -9.535156 1.859375 -10.921875 C 2.054688 -11.441406 2.234375 -11.882812 2.390625 -12.25 C 2.535156 -12.601562 2.660156 -12.898438 2.765625 -13.140625 C 2.972656 -13.554688 3.140625 -13.8125 3.265625 -13.90625 C 3.390625 -14 3.546875 -14.023438 3.734375 -13.984375 C 3.992188 -13.898438 4.117188 -13.734375 4.109375 -13.484375 C 4.085938 -13.234375 3.90625 -12.691406 3.5625 -11.859375 C 3.332031 -11.296875 3.109375 -10.726562 2.890625 -10.15625 C 2.648438 -9.5625 2.429688 -8.984375 2.234375 -8.421875 C 1.859375 -7.390625 1.5625 -6.488281 1.34375 -5.71875 C 1.101562 -4.9375 1 -4.484375 1.03125 -4.359375 C 1.050781 -4.328125 1.128906 -4.429688 1.265625 -4.671875 C 1.410156 -4.921875 1.582031 -5.222656 1.78125 -5.578125 C 2.894531 -7.671875 4.066406 -9.59375 5.296875 -11.34375 C 6.535156 -13.101562 7.753906 -14.59375 8.953125 -15.8125 C 9.816406 -16.664062 10.5625 -17.265625 11.1875 -17.609375 C 11.5625 -17.796875 11.882812 -17.890625 12.15625 -17.890625 C 12.351562 -17.890625 12.523438 -17.84375 12.671875 -17.75 C 12.835938 -17.625 12.96875 -17.460938 13.0625 -17.265625 C 13.15625 -17.078125 13.195312 -16.816406 13.1875 -16.484375 C 13.1875 -15.890625 13.015625 -15.015625 12.671875 -13.859375 C 12.335938 -12.722656 11.800781 -11.144531 11.0625 -9.125 C 10.957031 -8.8125 10.863281 -8.535156 10.78125 -8.296875 C 10.707031 -8.078125 10.675781 -7.96875 10.6875 -7.96875 C 10.707031 -7.96875 10.796875 -8.0625 10.953125 -8.25 C 11.085938 -8.457031 11.257812 -8.691406 11.46875 -8.953125 C 12.40625 -10.203125 13.359375 -11.378906 14.328125 -12.484375 C 15.296875 -13.554688 16.015625 -14.242188 16.484375 -14.546875 C 16.785156 -14.734375 17.0625 -14.832031 17.3125 -14.84375 C 17.5625 -14.84375 17.765625 -14.742188 17.921875 -14.546875 C 18.046875 -14.398438 18.109375 -14.1875 18.109375 -13.90625 C 18.109375 -13.71875 18.066406 -13.492188 17.984375 -13.234375 C 17.847656 -12.609375 17.441406 -11.503906 16.765625 -9.921875 C 15.691406 -7.359375 14.921875 -5.25 14.453125 -3.59375 C 13.984375 -1.9375 13.71875 -0.351562 13.65625 1.15625 C 13.625 1.71875 13.59375 2.097656 13.5625 2.296875 C 13.53125 2.484375 13.472656 2.617188 13.390625 2.703125 C 13.265625 2.828125 13.125 2.890625 12.96875 2.890625 C 12.800781 2.890625 12.660156 2.828125 12.546875 2.703125 Z M 12.546875 2.703125 "/></g></g></g><g fill="#271a4c" fill-opacity="1"><g transform="translate(25.048104, 21.864889)"><g><path d="M 5.328125 -9.515625 C 5.554688 -9.390625 5.65625 -9.210938 5.625 -8.984375 C 5.613281 -8.765625 5.46875 -8.21875 5.1875 -7.34375 C 4.914062 -6.5625 4.695312 -5.859375 4.53125 -5.234375 C 4.375 -4.585938 4.296875 -4.140625 4.296875 -3.890625 C 4.296875 -3.546875 4.546875 -3.640625 5.046875 -4.171875 C 5.546875 -4.703125 6.265625 -5.640625 7.203125 -6.984375 C 7.429688 -7.316406 7.585938 -7.515625 7.671875 -7.578125 C 7.742188 -7.640625 7.875 -7.660156 8.0625 -7.640625 C 8.25 -7.628906 8.40625 -7.550781 8.53125 -7.40625 C 8.613281 -7.3125 8.65625 -7.210938 8.65625 -7.109375 C 8.65625 -7.054688 8.644531 -7.007812 8.625 -6.96875 C 8.613281 -6.882812 8.472656 -6.648438 8.203125 -6.265625 C 7.941406 -5.867188 7.644531 -5.460938 7.3125 -5.046875 C 7.09375 -4.742188 6.882812 -4.46875 6.6875 -4.21875 C 6.476562 -3.957031 6.304688 -3.75 6.171875 -3.59375 C 5.609375 -2.96875 5.109375 -2.5625 4.671875 -2.375 C 4.484375 -2.28125 4.3125 -2.234375 4.15625 -2.234375 C 3.9375 -2.234375 3.734375 -2.300781 3.546875 -2.4375 C 3.484375 -2.5 3.410156 -2.585938 3.328125 -2.703125 C 3.253906 -2.828125 3.203125 -2.9375 3.171875 -3.03125 C 3.085938 -3.257812 3.0625 -3.640625 3.09375 -4.171875 C 3.144531 -4.691406 3.234375 -5.207031 3.359375 -5.71875 C 3.421875 -5.925781 3.46875 -6.109375 3.5 -6.265625 C 3.53125 -6.421875 3.546875 -6.503906 3.546875 -6.515625 C 3.523438 -6.515625 3.453125 -6.46875 3.328125 -6.375 C 3.203125 -6.28125 3.0625 -6.164062 2.90625 -6.03125 C 2.375 -5.5625 1.882812 -5.207031 1.4375 -4.96875 C 1 -4.71875 0.628906 -4.59375 0.328125 -4.59375 C 0.253906 -4.59375 0.160156 -4.625 0.046875 -4.6875 C -0.0664062 -4.75 -0.175781 -4.835938 -0.28125 -4.953125 C -0.457031 -5.117188 -0.5625 -5.25 -0.59375 -5.34375 C -0.601562 -5.394531 -0.609375 -5.457031 -0.609375 -5.53125 C -0.609375 -5.613281 -0.601562 -5.71875 -0.59375 -5.84375 C -0.5625 -6.1875 -0.421875 -6.566406 -0.171875 -6.984375 C 0.0664062 -7.410156 0.367188 -7.800781 0.734375 -8.15625 C 1.242188 -8.6875 1.75 -9.039062 2.25 -9.21875 C 2.738281 -9.40625 3.21875 -9.421875 3.6875 -9.265625 C 3.90625 -9.179688 4.046875 -9.148438 4.109375 -9.171875 C 4.171875 -9.171875 4.269531 -9.234375 4.40625 -9.359375 C 4.519531 -9.453125 4.625 -9.515625 4.71875 -9.546875 C 4.8125 -9.585938 4.894531 -9.609375 4.96875 -9.609375 C 5.03125 -9.609375 5.09375 -9.601562 5.15625 -9.59375 C 5.207031 -9.570312 5.265625 -9.546875 5.328125 -9.515625 Z M 2.890625 -8.109375 C 2.648438 -8.046875 2.4375 -7.960938 2.25 -7.859375 C 2.082031 -7.734375 1.875 -7.546875 1.625 -7.296875 C 1.351562 -7.015625 1.148438 -6.78125 1.015625 -6.59375 C 0.890625 -6.40625 0.828125 -6.253906 0.828125 -6.140625 C 0.828125 -6.046875 0.953125 -6.085938 1.203125 -6.265625 C 1.453125 -6.429688 1.828125 -6.734375 2.328125 -7.171875 C 2.710938 -7.515625 2.960938 -7.765625 3.078125 -7.921875 C 3.179688 -8.078125 3.164062 -8.148438 3.03125 -8.140625 L 2.953125 -8.140625 C 2.941406 -8.140625 2.921875 -8.128906 2.890625 -8.109375 Z M 2.890625 -8.109375 "/></g></g></g><g fill="#271a4c" fill-opacity="1"><g transform="translate(32.575576, 21.864889)"><g><path d="M 4.53125 -9.40625 C 4.65625 -9.40625 4.765625 -9.390625 4.859375 -9.359375 C 4.929688 -9.304688 5.015625 -9.226562 5.109375 -9.125 C 5.222656 -8.976562 5.285156 -8.796875 5.296875 -8.578125 L 5.296875 -8.1875 C 5.296875 -7.820312 5.289062 -7.257812 5.28125 -6.5 C 5.257812 -5.820312 5.226562 -5.164062 5.1875 -4.53125 C 5.132812 -3.882812 5.085938 -3.414062 5.046875 -3.125 C 4.828125 -1.632812 4.484375 -0.378906 4.015625 0.640625 C 3.523438 1.648438 2.921875 2.460938 2.203125 3.078125 C 1.546875 3.617188 0.835938 3.984375 0.078125 4.171875 C -0.273438 4.265625 -0.613281 4.3125 -0.9375 4.3125 C -1.332031 4.3125 -1.707031 4.25 -2.0625 4.125 C -2.582031 3.9375 -2.972656 3.640625 -3.234375 3.234375 C -3.472656 2.890625 -3.59375 2.515625 -3.59375 2.109375 C -3.59375 2.035156 -3.582031 1.953125 -3.5625 1.859375 C -3.457031 0.867188 -2.84375 0.00390625 -1.71875 -0.734375 C -0.601562 -1.460938 0.648438 -1.828125 2.046875 -1.828125 C 2.429688 -1.828125 2.6875 -1.820312 2.8125 -1.8125 C 2.9375 -1.78125 3.039062 -1.71875 3.125 -1.625 L 3.265625 -1.484375 C 3.304688 -1.453125 3.34375 -1.4375 3.375 -1.4375 C 3.4375 -1.4375 3.507812 -1.644531 3.59375 -2.0625 C 3.6875 -2.488281 3.769531 -3.003906 3.84375 -3.609375 C 3.894531 -3.921875 3.9375 -4.25 3.96875 -4.59375 C 4 -4.9375 4.019531 -5.273438 4.03125 -5.609375 L 4.109375 -6.875 L 3.1875 -5.953125 C 2.6875 -5.453125 2.242188 -5.085938 1.859375 -4.859375 C 1.460938 -4.617188 1.101562 -4.5 0.78125 -4.5 C 0.40625 -4.5 0.128906 -4.648438 -0.046875 -4.953125 C -0.222656 -5.265625 -0.3125 -5.613281 -0.3125 -6 C -0.28125 -6.5 -0.148438 -7.046875 0.078125 -7.640625 C 0.296875 -8.222656 0.5 -8.5625 0.6875 -8.65625 C 0.84375 -8.726562 1 -8.742188 1.15625 -8.703125 C 1.289062 -8.648438 1.398438 -8.546875 1.484375 -8.390625 C 1.523438 -8.285156 1.546875 -8.1875 1.546875 -8.09375 C 1.535156 -8 1.484375 -7.84375 1.390625 -7.625 C 1.242188 -7.25 1.117188 -6.875 1.015625 -6.5 C 0.921875 -6.125 0.894531 -5.910156 0.9375 -5.859375 C 1.050781 -5.734375 1.390625 -5.9375 1.953125 -6.46875 C 2.492188 -6.988281 2.960938 -7.546875 3.359375 -8.140625 C 3.710938 -8.703125 3.945312 -9.050781 4.0625 -9.1875 C 4.15625 -9.332031 4.269531 -9.40625 4.40625 -9.40625 Z M 0.984375 -0.5 C 0.304688 -0.382812 -0.34375 -0.128906 -0.96875 0.265625 C -1.59375 0.648438 -2.003906 1.070312 -2.203125 1.53125 C -2.503906 2.195312 -2.34375 2.664062 -1.71875 2.9375 C -1.09375 3.195312 -0.332031 3.109375 0.5625 2.671875 C 0.96875 2.472656 1.375 2.15625 1.78125 1.71875 C 2.207031 1.28125 2.546875 0.8125 2.796875 0.3125 C 2.890625 0.101562 2.972656 -0.078125 3.046875 -0.234375 C 3.109375 -0.410156 3.140625 -0.515625 3.140625 -0.546875 C 3.140625 -0.578125 3.078125 -0.597656 2.953125 -0.609375 C 2.828125 -0.628906 2.664062 -0.640625 2.46875 -0.640625 C 2.257812 -0.640625 2.023438 -0.625 1.765625 -0.59375 C 1.515625 -0.570312 1.253906 -0.539062 0.984375 -0.5 Z M 0.984375 -0.5 "/></g></g></g><g fill="#271a4c" fill-opacity="1"><g transform="translate(38.813294, 21.864889)"><g/></g></g><g fill="#271a4c" fill-opacity="1"><g transform="translate(45.285513, 21.864889)"><g><path d="M 1.34375 -0.1875 C 1.070312 -0.34375 0.890625 -0.59375 0.796875 -0.9375 C 0.703125 -1.269531 0.65625 -1.8125 0.65625 -2.5625 C 0.65625 -2.9375 0.679688 -3.375 0.734375 -3.875 C 0.773438 -4.375 0.835938 -4.90625 0.921875 -5.46875 C 1.078125 -6.53125 1.28125 -7.6875 1.53125 -8.9375 C 1.78125 -10.164062 2.050781 -11.363281 2.34375 -12.53125 C 2.59375 -13.539062 2.757812 -14.21875 2.84375 -14.5625 C 2.90625 -14.90625 2.90625 -15.101562 2.84375 -15.15625 C 2.757812 -15.195312 2.515625 -15.03125 2.109375 -14.65625 C 1.691406 -14.300781 1.238281 -13.859375 0.75 -13.328125 C 0.25 -12.773438 -0.101562 -12.460938 -0.3125 -12.390625 C -0.5 -12.304688 -0.691406 -12.390625 -0.890625 -12.640625 C -0.984375 -12.765625 -1.03125 -12.859375 -1.03125 -12.921875 L -1.03125 -12.953125 C -1.03125 -12.992188 -1 -13.085938 -0.9375 -13.234375 C -0.84375 -13.390625 -0.625 -13.65625 -0.28125 -14.03125 C 0.0820312 -14.414062 0.457031 -14.789062 0.84375 -15.15625 C 1.113281 -15.40625 1.363281 -15.625 1.59375 -15.8125 C 1.8125 -16.007812 1.984375 -16.140625 2.109375 -16.203125 C 2.484375 -16.421875 2.8125 -16.53125 3.09375 -16.53125 C 3.375 -16.53125 3.601562 -16.429688 3.78125 -16.234375 C 4.039062 -15.921875 4.15625 -15.53125 4.125 -15.0625 C 4.113281 -14.59375 3.9375 -13.6875 3.59375 -12.34375 C 3.414062 -11.707031 3.257812 -11.070312 3.125 -10.4375 C 2.976562 -9.78125 2.835938 -9.140625 2.703125 -8.515625 C 2.460938 -7.328125 2.273438 -6.207031 2.140625 -5.15625 C 1.984375 -4.113281 1.90625 -3.265625 1.90625 -2.609375 C 1.90625 -1.929688 1.941406 -1.554688 2.015625 -1.484375 C 2.078125 -1.398438 2.265625 -1.53125 2.578125 -1.875 C 2.921875 -2.238281 3.28125 -2.703125 3.65625 -3.265625 C 4.03125 -3.804688 4.554688 -4.648438 5.234375 -5.796875 C 5.585938 -6.398438 6 -7.117188 6.46875 -7.953125 C 6.9375 -8.773438 7.484375 -9.742188 8.109375 -10.859375 C 8.347656 -11.265625 8.609375 -11.710938 8.890625 -12.203125 C 9.171875 -12.703125 9.46875 -13.203125 9.78125 -13.703125 C 10.320312 -14.640625 10.851562 -15.519531 11.375 -16.34375 C 11.894531 -17.175781 12.265625 -17.734375 12.484375 -18.015625 C 12.671875 -18.273438 12.8125 -18.445312 12.90625 -18.53125 C 13 -18.601562 13.109375 -18.640625 13.234375 -18.640625 C 13.390625 -18.640625 13.535156 -18.585938 13.671875 -18.484375 C 13.796875 -18.359375 13.859375 -18.222656 13.859375 -18.078125 C 13.859375 -18.035156 13.78125 -17.878906 13.625 -17.609375 C 13.488281 -17.359375 13.3125 -17.078125 13.09375 -16.765625 C 12.96875 -16.578125 12.703125 -16.140625 12.296875 -15.453125 C 11.867188 -14.765625 11.4375 -14.054688 11 -13.328125 C 10.695312 -12.835938 10.421875 -12.378906 10.171875 -11.953125 C 9.921875 -11.535156 9.742188 -11.21875 9.640625 -11 C 8.898438 -9.695312 8.257812 -8.578125 7.71875 -7.640625 C 7.1875 -6.703125 6.722656 -5.898438 6.328125 -5.234375 C 5.597656 -3.992188 5.050781 -3.101562 4.6875 -2.5625 C 4.332031 -2.03125 3.984375 -1.578125 3.640625 -1.203125 C 3.328125 -0.835938 3.003906 -0.546875 2.671875 -0.328125 C 2.359375 -0.109375 2.101562 0 1.90625 0 C 1.84375 0 1.753906 -0.015625 1.640625 -0.046875 C 1.515625 -0.0976562 1.414062 -0.144531 1.34375 -0.1875 Z M 1.34375 -0.1875 "/></g></g></g><g fill="#271a4c" fill-opacity="1"><g transform="translate(57.784399, 21.864889)"><g><path d="M 3.171875 -9.40625 C 3.421875 -9.3125 3.609375 -9.171875 3.734375 -8.984375 C 3.859375 -8.796875 3.921875 -8.546875 3.921875 -8.234375 C 3.921875 -7.648438 3.703125 -7.101562 3.265625 -6.59375 C 2.835938 -6.0625 2.226562 -5.597656 1.4375 -5.203125 C 1.226562 -5.097656 0.914062 -4.941406 0.5 -4.734375 C 0.4375 -4.535156 0.425781 -4.359375 0.46875 -4.203125 C 0.519531 -4.023438 0.59375 -3.882812 0.6875 -3.78125 C 0.75 -3.6875 0.847656 -3.628906 0.984375 -3.609375 C 1.109375 -3.578125 1.289062 -3.570312 1.53125 -3.59375 C 2.09375 -3.632812 2.769531 -3.90625 3.5625 -4.40625 C 4.363281 -4.90625 5.253906 -5.625 6.234375 -6.5625 C 6.515625 -6.84375 6.773438 -7.085938 7.015625 -7.296875 C 7.242188 -7.492188 7.382812 -7.601562 7.4375 -7.625 C 7.59375 -7.664062 7.75 -7.625 7.90625 -7.5 C 8.039062 -7.363281 8.109375 -7.203125 8.109375 -7.015625 C 8.109375 -6.867188 8.046875 -6.71875 7.921875 -6.5625 C 7.796875 -6.40625 7.507812 -6.109375 7.0625 -5.671875 C 5.84375 -4.453125 4.671875 -3.546875 3.546875 -2.953125 C 2.671875 -2.484375 1.921875 -2.25 1.296875 -2.25 C 1.117188 -2.25 0.945312 -2.273438 0.78125 -2.328125 C 0.175781 -2.484375 -0.253906 -2.828125 -0.515625 -3.359375 C -0.691406 -3.703125 -0.78125 -4.09375 -0.78125 -4.53125 C -0.78125 -4.78125 -0.753906 -5.046875 -0.703125 -5.328125 C -0.484375 -6.390625 -0.015625 -7.332031 0.703125 -8.15625 C 1.421875 -9 2.109375 -9.429688 2.765625 -9.453125 L 2.984375 -9.453125 Z M 1.296875 -6.921875 C 1.140625 -6.648438 1.0625 -6.492188 1.0625 -6.453125 C 1.070312 -6.398438 1.179688 -6.429688 1.390625 -6.546875 C 1.734375 -6.710938 2.066406 -7.023438 2.390625 -7.484375 C 2.734375 -7.929688 2.796875 -8.15625 2.578125 -8.15625 C 2.503906 -8.15625 2.300781 -8 1.96875 -7.6875 C 1.65625 -7.375 1.429688 -7.117188 1.296875 -6.921875 Z M 1.296875 -6.921875 "/></g></g></g><g fill="#271a4c" fill-opacity="1"><g transform="translate(64.98357, 21.864889)"><g><path d="M 6.96875 -15.21875 C 6.96875 -14.25 6.566406 -13.035156 5.765625 -11.578125 C 4.984375 -10.128906 3.992188 -8.78125 2.796875 -7.53125 C 2.515625 -7.226562 2.222656 -6.953125 1.921875 -6.703125 C 1.640625 -6.441406 1.445312 -6.28125 1.34375 -6.21875 C 1.09375 -6.0625 0.9375 -5.878906 0.875 -5.671875 C 0.8125 -5.472656 0.78125 -5.019531 0.78125 -4.3125 C 0.78125 -3.8125 0.828125 -3.421875 0.921875 -3.140625 C 1.023438 -2.878906 1.171875 -2.734375 1.359375 -2.703125 C 1.796875 -2.640625 2.46875 -2.988281 3.375 -3.75 C 4.28125 -4.5 5.109375 -5.46875 5.859375 -6.65625 C 6.078125 -7 6.25 -7.234375 6.375 -7.359375 C 6.5 -7.472656 6.640625 -7.53125 6.796875 -7.53125 C 6.953125 -7.53125 7.085938 -7.46875 7.203125 -7.34375 C 7.296875 -7.226562 7.34375 -7.085938 7.34375 -6.921875 C 7.34375 -6.734375 7.140625 -6.359375 6.734375 -5.796875 C 6.328125 -5.242188 5.875 -4.679688 5.375 -4.109375 C 5.09375 -3.804688 4.816406 -3.523438 4.546875 -3.265625 C 4.285156 -2.984375 4.046875 -2.753906 3.828125 -2.578125 C 3.179688 -2.035156 2.554688 -1.6875 1.953125 -1.53125 C 1.734375 -1.46875 1.519531 -1.4375 1.3125 -1.4375 C 0.988281 -1.4375 0.707031 -1.519531 0.46875 -1.6875 C -0.175781 -2.113281 -0.488281 -3.019531 -0.46875 -4.40625 C -0.46875 -5.8125 -0.144531 -7.421875 0.5 -9.234375 C 0.59375 -9.472656 0.703125 -9.753906 0.828125 -10.078125 C 0.960938 -10.390625 1.109375 -10.726562 1.265625 -11.09375 C 1.578125 -11.75 1.898438 -12.40625 2.234375 -13.0625 C 2.578125 -13.71875 2.875 -14.226562 3.125 -14.59375 C 3.570312 -15.289062 4.03125 -15.851562 4.5 -16.28125 C 4.988281 -16.695312 5.390625 -16.90625 5.703125 -16.90625 C 6.109375 -16.90625 6.421875 -16.765625 6.640625 -16.484375 C 6.859375 -16.203125 6.96875 -15.78125 6.96875 -15.21875 Z M 4.125 -13.890625 C 3.9375 -13.578125 3.710938 -13.175781 3.453125 -12.6875 C 3.179688 -12.1875 2.921875 -11.675781 2.671875 -11.15625 C 2.296875 -10.363281 1.984375 -9.640625 1.734375 -8.984375 C 1.472656 -8.328125 1.390625 -8 1.484375 -8 C 1.515625 -8 1.597656 -8.078125 1.734375 -8.234375 C 1.890625 -8.367188 2.0625 -8.539062 2.25 -8.75 C 2.9375 -9.5 3.585938 -10.363281 4.203125 -11.34375 C 4.804688 -12.332031 5.226562 -13.203125 5.46875 -13.953125 C 5.570312 -14.285156 5.640625 -14.640625 5.671875 -15.015625 C 5.703125 -15.398438 5.679688 -15.59375 5.609375 -15.59375 C 5.523438 -15.59375 5.320312 -15.40625 5 -15.03125 C 4.6875 -14.675781 4.394531 -14.296875 4.125 -13.890625 Z M 4.125 -13.890625 "/></g></g></g><g fill="#271a4c" fill-opacity="1"><g transform="translate(71.244738, 21.864889)"><g><path d="M 3.421875 -2.375 C 3.265625 -2.4375 3.117188 -2.566406 2.984375 -2.765625 C 2.835938 -2.972656 2.742188 -3.175781 2.703125 -3.375 C 2.679688 -3.46875 2.679688 -3.617188 2.703125 -3.828125 C 2.703125 -4.046875 2.71875 -4.238281 2.75 -4.40625 C 2.78125 -4.59375 2.800781 -4.757812 2.8125 -4.90625 C 2.832031 -5.039062 2.832031 -5.117188 2.8125 -5.140625 L 2.625 -5.015625 C 2.5 -4.921875 2.359375 -4.8125 2.203125 -4.6875 C 1.910156 -4.457031 1.625 -4.28125 1.34375 -4.15625 C 1.039062 -4.039062 0.789062 -4.015625 0.59375 -4.078125 C 0.507812 -4.097656 0.421875 -4.140625 0.328125 -4.203125 C 0.222656 -4.273438 0.128906 -4.351562 0.046875 -4.4375 C -0.0976562 -4.59375 -0.203125 -4.800781 -0.265625 -5.0625 C -0.296875 -5.21875 -0.3125 -5.390625 -0.3125 -5.578125 C -0.3125 -5.722656 -0.300781 -5.863281 -0.28125 -6 C -0.269531 -6.15625 -0.21875 -6.460938 -0.125 -6.921875 C -0.0078125 -7.390625 0.0703125 -7.707031 0.125 -7.875 C 0.1875 -8.09375 0.238281 -8.28125 0.28125 -8.4375 C 0.34375 -8.582031 0.414062 -8.691406 0.5 -8.765625 C 0.570312 -8.828125 0.65625 -8.867188 0.75 -8.890625 C 0.832031 -8.898438 0.941406 -8.890625 1.078125 -8.859375 C 1.171875 -8.828125 1.25 -8.789062 1.3125 -8.75 C 1.375 -8.6875 1.414062 -8.609375 1.4375 -8.515625 C 1.445312 -8.421875 1.445312 -8.300781 1.4375 -8.15625 C 1.414062 -8.019531 1.375 -7.84375 1.3125 -7.625 C 1.28125 -7.5 1.21875 -7.234375 1.125 -6.828125 C 1.03125 -6.421875 0.976562 -6.171875 0.96875 -6.078125 C 0.9375 -5.890625 0.925781 -5.734375 0.9375 -5.609375 C 0.957031 -5.492188 0.988281 -5.421875 1.03125 -5.390625 C 1.125 -5.328125 1.421875 -5.585938 1.921875 -6.171875 C 2.421875 -6.734375 2.851562 -7.3125 3.21875 -7.90625 C 3.59375 -8.507812 3.875 -8.882812 4.0625 -9.03125 C 4.132812 -9.09375 4.21875 -9.125 4.3125 -9.125 C 4.425781 -9.125 4.546875 -9.082031 4.671875 -9 C 4.734375 -8.957031 4.796875 -8.894531 4.859375 -8.8125 C 4.921875 -8.738281 4.957031 -8.671875 4.96875 -8.609375 C 4.988281 -8.546875 4.957031 -8.328125 4.875 -7.953125 C 4.800781 -7.585938 4.703125 -7.179688 4.578125 -6.734375 C 4.429688 -6.273438 4.3125 -5.820312 4.21875 -5.375 C 4.113281 -4.914062 4.050781 -4.601562 4.03125 -4.4375 C 4.019531 -4.28125 4.003906 -4.050781 3.984375 -3.75 C 4.066406 -3.84375 4.191406 -3.984375 4.359375 -4.171875 C 4.472656 -4.285156 4.65625 -4.519531 4.90625 -4.875 C 5.15625 -5.21875 5.40625 -5.578125 5.65625 -5.953125 C 5.882812 -6.347656 6.109375 -6.691406 6.328125 -6.984375 C 6.535156 -7.296875 6.660156 -7.476562 6.703125 -7.53125 C 6.878906 -7.71875 7.082031 -7.753906 7.3125 -7.640625 C 7.5625 -7.535156 7.6875 -7.34375 7.6875 -7.0625 C 7.6875 -6.976562 7.578125 -6.757812 7.359375 -6.40625 C 7.160156 -6.03125 6.925781 -5.628906 6.65625 -5.203125 C 6.519531 -4.972656 6.378906 -4.753906 6.234375 -4.546875 C 6.078125 -4.328125 5.9375 -4.140625 5.8125 -3.984375 C 5.332031 -3.347656 4.890625 -2.890625 4.484375 -2.609375 C 4.203125 -2.421875 3.941406 -2.328125 3.703125 -2.328125 C 3.609375 -2.328125 3.515625 -2.34375 3.421875 -2.375 Z M 3.421875 -2.375 "/></g></g></g><g fill="#271a4c" fill-opacity="1"><g transform="translate(77.810757, 21.864889)"><g><path d="M -0.09375 -3.5 C -0.34375 -3.632812 -0.492188 -3.890625 -0.546875 -4.265625 C -0.554688 -4.378906 -0.5625 -4.5 -0.5625 -4.625 C -0.5625 -4.9375 -0.515625 -5.3125 -0.421875 -5.75 C -0.378906 -5.976562 -0.3125 -6.273438 -0.21875 -6.640625 C -0.101562 -6.984375 0.015625 -7.347656 0.140625 -7.734375 C 0.328125 -8.296875 0.515625 -8.828125 0.703125 -9.328125 C 0.878906 -9.816406 1 -10.09375 1.0625 -10.15625 C 1.1875 -10.28125 1.328125 -10.34375 1.484375 -10.34375 C 1.554688 -10.34375 1.632812 -10.328125 1.71875 -10.296875 C 1.96875 -10.203125 2.09375 -10.019531 2.09375 -9.75 C 2.09375 -9.707031 2.050781 -9.550781 1.96875 -9.28125 C 1.894531 -9.019531 1.800781 -8.738281 1.6875 -8.4375 C 1.4375 -7.738281 1.21875 -7.046875 1.03125 -6.359375 C 0.832031 -5.679688 0.75 -5.296875 0.78125 -5.203125 C 0.789062 -5.171875 0.875 -5.25 1.03125 -5.4375 C 1.207031 -5.625 1.40625 -5.867188 1.625 -6.171875 C 2.625 -7.460938 3.394531 -8.390625 3.9375 -8.953125 C 4.46875 -9.503906 4.929688 -9.832031 5.328125 -9.9375 C 5.679688 -10.03125 5.984375 -9.976562 6.234375 -9.78125 C 6.472656 -9.570312 6.59375 -9.257812 6.59375 -8.84375 C 6.59375 -8.75 6.566406 -8.535156 6.515625 -8.203125 C 6.472656 -7.878906 6.410156 -7.535156 6.328125 -7.171875 C 6.191406 -6.453125 6.113281 -5.945312 6.09375 -5.65625 C 6.082031 -5.375 6.125 -5.234375 6.21875 -5.234375 C 6.351562 -5.234375 6.65625 -5.425781 7.125 -5.8125 C 7.59375 -6.21875 8.023438 -6.617188 8.421875 -7.015625 C 8.515625 -7.117188 8.597656 -7.203125 8.671875 -7.265625 L 8.890625 -7.484375 C 9.179688 -7.703125 9.414062 -7.660156 9.59375 -7.359375 C 9.6875 -7.222656 9.734375 -7.082031 9.734375 -6.9375 C 9.734375 -6.8125 9.691406 -6.695312 9.609375 -6.59375 C 8.722656 -5.59375 8.019531 -4.921875 7.5 -4.578125 C 6.988281 -4.234375 6.628906 -4.035156 6.421875 -3.984375 C 6.191406 -3.941406 6.019531 -3.925781 5.90625 -3.9375 C 5.8125 -3.9375 5.695312 -3.984375 5.5625 -4.078125 C 5.1875 -4.285156 4.96875 -4.625 4.90625 -5.09375 C 4.820312 -5.5625 4.875 -6.265625 5.0625 -7.203125 C 5.125 -7.515625 5.171875 -7.785156 5.203125 -8.015625 C 5.234375 -8.234375 5.234375 -8.359375 5.203125 -8.390625 C 5.160156 -8.441406 4.957031 -8.269531 4.59375 -7.875 C 4.238281 -7.46875 3.78125 -6.890625 3.21875 -6.140625 C 2.289062 -4.921875 1.59375 -4.125 1.125 -3.75 C 0.832031 -3.519531 0.5625 -3.40625 0.3125 -3.40625 C 0.164062 -3.40625 0.03125 -3.4375 -0.09375 -3.5 Z M -0.09375 -3.5 "/></g></g></g><g fill="#271a4c" fill-opacity="1"><g transform="translate(86.487283, 21.864889)"><g><path d="M 0.375 -0.6875 C 0.300781 -0.695312 0.203125 -0.742188 0.078125 -0.828125 C -0.0546875 -0.890625 -0.171875 -0.972656 -0.265625 -1.078125 C -0.460938 -1.285156 -0.609375 -1.578125 -0.703125 -1.953125 C -0.765625 -2.203125 -0.796875 -2.46875 -0.796875 -2.75 C -0.796875 -2.90625 -0.789062 -3.0625 -0.78125 -3.21875 C -0.75 -3.5 -0.675781 -3.863281 -0.5625 -4.3125 C -0.46875 -4.769531 -0.34375 -5.269531 -0.1875 -5.8125 C 0.09375 -6.8125 0.4375 -7.90625 0.84375 -9.09375 C 1.25 -10.269531 1.65625 -11.320312 2.0625 -12.25 C 2.207031 -12.570312 2.316406 -12.851562 2.390625 -13.09375 C 2.472656 -13.320312 2.503906 -13.445312 2.484375 -13.46875 C 2.472656 -13.476562 2.394531 -13.476562 2.25 -13.46875 C 2.113281 -13.445312 1.941406 -13.421875 1.734375 -13.390625 C 1.546875 -13.359375 1.335938 -13.328125 1.109375 -13.296875 C 0.867188 -13.253906 0.671875 -13.222656 0.515625 -13.203125 C 0.285156 -13.191406 0.128906 -13.191406 0.046875 -13.203125 C -0.015625 -13.234375 -0.09375 -13.3125 -0.1875 -13.4375 C -0.269531 -13.5625 -0.3125 -13.65625 -0.3125 -13.71875 C -0.320312 -13.78125 -0.289062 -13.867188 -0.21875 -13.984375 C -0.125 -14.148438 0.0507812 -14.28125 0.3125 -14.375 C 0.5625 -14.457031 1.03125 -14.550781 1.71875 -14.65625 C 2.007812 -14.707031 2.28125 -14.753906 2.53125 -14.796875 C 2.78125 -14.847656 2.9375 -14.875 3 -14.875 C 3.082031 -14.882812 3.1875 -14.992188 3.3125 -15.203125 C 3.4375 -15.398438 3.609375 -15.726562 3.828125 -16.1875 C 4.109375 -16.757812 4.296875 -17.117188 4.390625 -17.265625 C 4.484375 -17.390625 4.609375 -17.457031 4.765625 -17.46875 L 4.828125 -17.46875 C 4.984375 -17.46875 5.117188 -17.421875 5.234375 -17.328125 C 5.359375 -17.234375 5.421875 -17.09375 5.421875 -16.90625 C 5.421875 -16.84375 5.390625 -16.726562 5.328125 -16.5625 C 5.265625 -16.40625 5.191406 -16.238281 5.109375 -16.0625 L 4.875 -15.59375 L 4.734375 -15.25 L 4.671875 -15.03125 L 6 -15.03125 C 6.71875 -15.03125 7.171875 -14.992188 7.359375 -14.921875 C 7.566406 -14.835938 7.671875 -14.65625 7.671875 -14.375 C 7.671875 -14.144531 7.5625 -13.988281 7.34375 -13.90625 C 7.132812 -13.832031 6.710938 -13.796875 6.078125 -13.796875 C 5.765625 -13.796875 5.453125 -13.785156 5.140625 -13.765625 C 4.828125 -13.753906 4.609375 -13.738281 4.484375 -13.71875 C 4.390625 -13.707031 4.238281 -13.6875 4.03125 -13.65625 C 3.90625 -13.375 3.726562 -12.957031 3.5 -12.40625 C 3.382812 -12.175781 3.25 -11.851562 3.09375 -11.4375 C 2.9375 -11.03125 2.765625 -10.585938 2.578125 -10.109375 C 2.253906 -9.210938 1.921875 -8.289062 1.578125 -7.34375 C 1.234375 -6.382812 1 -5.65625 0.875 -5.15625 C 0.789062 -4.84375 0.71875 -4.5 0.65625 -4.125 C 0.59375 -3.769531 0.554688 -3.425781 0.546875 -3.09375 C 0.523438 -2.625 0.515625 -2.328125 0.515625 -2.203125 C 0.535156 -2.078125 0.59375 -2 0.6875 -1.96875 C 0.96875 -1.863281 1.609375 -2.25 2.609375 -3.125 C 3.585938 -4 4.609375 -5.097656 5.671875 -6.421875 C 6.140625 -6.984375 6.460938 -7.351562 6.640625 -7.53125 C 6.796875 -7.695312 6.9375 -7.78125 7.0625 -7.78125 C 7.226562 -7.78125 7.375 -7.71875 7.5 -7.59375 C 7.625 -7.46875 7.6875 -7.328125 7.6875 -7.171875 C 7.6875 -7.109375 7.625 -6.984375 7.5 -6.796875 C 7.394531 -6.609375 7.238281 -6.382812 7.03125 -6.125 C 6.65625 -5.632812 6.1875 -5.070312 5.625 -4.4375 C 5.050781 -3.789062 4.5 -3.210938 3.96875 -2.703125 C 3.164062 -1.898438 2.492188 -1.351562 1.953125 -1.0625 C 1.492188 -0.8125 1.054688 -0.6875 0.640625 -0.6875 Z M 0.375 -0.6875 "/></g></g></g><g fill="#271a4c" fill-opacity="1"><g transform="translate(93.217452, 21.864889)"><g><path d="M 5.328125 -9.515625 C 5.554688 -9.390625 5.65625 -9.210938 5.625 -8.984375 C 5.613281 -8.765625 5.46875 -8.21875 5.1875 -7.34375 C 4.914062 -6.5625 4.695312 -5.859375 4.53125 -5.234375 C 4.375 -4.585938 4.296875 -4.140625 4.296875 -3.890625 C 4.296875 -3.546875 4.546875 -3.640625 5.046875 -4.171875 C 5.546875 -4.703125 6.265625 -5.640625 7.203125 -6.984375 C 7.429688 -7.316406 7.585938 -7.515625 7.671875 -7.578125 C 7.742188 -7.640625 7.875 -7.660156 8.0625 -7.640625 C 8.25 -7.628906 8.40625 -7.550781 8.53125 -7.40625 C 8.613281 -7.3125 8.65625 -7.210938 8.65625 -7.109375 C 8.65625 -7.054688 8.644531 -7.007812 8.625 -6.96875 C 8.613281 -6.882812 8.472656 -6.648438 8.203125 -6.265625 C 7.941406 -5.867188 7.644531 -5.460938 7.3125 -5.046875 C 7.09375 -4.742188 6.882812 -4.46875 6.6875 -4.21875 C 6.476562 -3.957031 6.304688 -3.75 6.171875 -3.59375 C 5.609375 -2.96875 5.109375 -2.5625 4.671875 -2.375 C 4.484375 -2.28125 4.3125 -2.234375 4.15625 -2.234375 C 3.9375 -2.234375 3.734375 -2.300781 3.546875 -2.4375 C 3.484375 -2.5 3.410156 -2.585938 3.328125 -2.703125 C 3.253906 -2.828125 3.203125 -2.9375 3.171875 -3.03125 C 3.085938 -3.257812 3.0625 -3.640625 3.09375 -4.171875 C 3.144531 -4.691406 3.234375 -5.207031 3.359375 -5.71875 C 3.421875 -5.925781 3.46875 -6.109375 3.5 -6.265625 C 3.53125 -6.421875 3.546875 -6.503906 3.546875 -6.515625 C 3.523438 -6.515625 3.453125 -6.46875 3.328125 -6.375 C 3.203125 -6.28125 3.0625 -6.164062 2.90625 -6.03125 C 2.375 -5.5625 1.882812 -5.207031 1.4375 -4.96875 C 1 -4.71875 0.628906 -4.59375 0.328125 -4.59375 C 0.253906 -4.59375 0.160156 -4.625 0.046875 -4.6875 C -0.0664062 -4.75 -0.175781 -4.835938 -0.28125 -4.953125 C -0.457031 -5.117188 -0.5625 -5.25 -0.59375 -5.34375 C -0.601562 -5.394531 -0.609375 -5.457031 -0.609375 -5.53125 C -0.609375 -5.613281 -0.601562 -5.71875 -0.59375 -5.84375 C -0.5625 -6.1875 -0.421875 -6.566406 -0.171875 -6.984375 C 0.0664062 -7.410156 0.367188 -7.800781 0.734375 -8.15625 C 1.242188 -8.6875 1.75 -9.039062 2.25 -9.21875 C 2.738281 -9.40625 3.21875 -9.421875 3.6875 -9.265625 C 3.90625 -9.179688 4.046875 -9.148438 4.109375 -9.171875 C 4.171875 -9.171875 4.269531 -9.234375 4.40625 -9.359375 C 4.519531 -9.453125 4.625 -9.515625 4.71875 -9.546875 C 4.8125 -9.585938 4.894531 -9.609375 4.96875 -9.609375 C 5.03125 -9.609375 5.09375 -9.601562 5.15625 -9.59375 C 5.207031 -9.570312 5.265625 -9.546875 5.328125 -9.515625 Z M 2.890625 -8.109375 C 2.648438 -8.046875 2.4375 -7.960938 2.25 -7.859375 C 2.082031 -7.734375 1.875 -7.546875 1.625 -7.296875 C 1.351562 -7.015625 1.148438 -6.78125 1.015625 -6.59375 C 0.890625 -6.40625 0.828125 -6.253906 0.828125 -6.140625 C 0.828125 -6.046875 0.953125 -6.085938 1.203125 -6.265625 C 1.453125 -6.429688 1.828125 -6.734375 2.328125 -7.171875 C 2.710938 -7.515625 2.960938 -7.765625 3.078125 -7.921875 C 3.179688 -8.078125 3.164062 -8.148438 3.03125 -8.140625 L 2.953125 -8.140625 C 2.941406 -8.140625 2.921875 -8.128906 2.890625 -8.109375 Z M 2.890625 -8.109375 "/></g></g></g><g fill="#271a4c" fill-opacity="1"><g transform="translate(37.363085, 25.935628)"><g><path d="M 2.09375 0 L 1.34375 0 L 0.03125 -3.546875 L 0.8125 -3.546875 L 1.546875 -1.265625 C 1.585938 -1.117188 1.648438 -0.894531 1.734375 -0.59375 L 1.78125 -0.8125 L 1.90625 -1.265625 L 2.640625 -3.546875 L 3.40625 -3.546875 Z M 2.09375 0 "/></g></g></g><g fill="#271a4c" fill-opacity="1"><g transform="translate(41.812176, 25.935628)"><g><path d="M 0.34375 0 L 0.34375 -3.546875 L 1.09375 -3.546875 L 1.09375 0 Z M 0.34375 0 "/></g></g></g><g fill="#271a4c" fill-opacity="1"><g transform="translate(44.254981, 25.935628)"><g><path d="M 2.78125 0 L 1.953125 -1.34375 L 1.09375 -1.34375 L 1.09375 0 L 0.34375 0 L 0.34375 -3.546875 L 2.125 -3.546875 C 2.539062 -3.546875 2.863281 -3.453125 3.09375 -3.265625 C 3.320312 -3.085938 3.4375 -2.828125 3.4375 -2.484375 C 3.4375 -2.242188 3.363281 -2.03125 3.21875 -1.84375 C 3.082031 -1.664062 2.894531 -1.546875 2.65625 -1.484375 L 3.625 0 Z M 2.6875 -2.453125 C 2.6875 -2.796875 2.472656 -2.96875 2.046875 -2.96875 L 1.09375 -2.96875 L 1.09375 -1.921875 L 2.0625 -1.921875 C 2.269531 -1.921875 2.425781 -1.96875 2.53125 -2.0625 C 2.632812 -2.15625 2.6875 -2.285156 2.6875 -2.453125 Z M 2.6875 -2.453125 "/></g></g></g><g fill="#271a4c" fill-opacity="1"><g transform="translate(48.988526, 25.935628)"><g><path d="M 1.953125 -2.96875 L 1.953125 0 L 1.203125 0 L 1.203125 -2.96875 L 0.0625 -2.96875 L 0.0625 -3.546875 L 3.09375 -3.546875 L 3.09375 -2.96875 Z M 1.953125 -2.96875 "/></g></g></g><g fill="#271a4c" fill-opacity="1"><g transform="translate(53.148128, 25.935628)"><g><path d="M 1.8125 0.046875 C 1.332031 0.046875 0.960938 -0.0703125 0.703125 -0.3125 C 0.441406 -0.550781 0.3125 -0.890625 0.3125 -1.328125 L 0.3125 -3.546875 L 1.046875 -3.546875 L 1.046875 -1.390625 C 1.046875 -1.109375 1.113281 -0.894531 1.25 -0.75 C 1.382812 -0.601562 1.582031 -0.53125 1.84375 -0.53125 C 2.101562 -0.53125 2.304688 -0.601562 2.453125 -0.75 C 2.597656 -0.90625 2.671875 -1.125 2.671875 -1.40625 L 2.671875 -3.546875 L 3.40625 -3.546875 L 3.40625 -1.359375 C 3.40625 -0.910156 3.265625 -0.5625 2.984375 -0.3125 C 2.710938 -0.0703125 2.320312 0.046875 1.8125 0.046875 Z M 1.8125 0.046875 "/></g></g></g><g fill="#271a4c" fill-opacity="1"><g transform="translate(57.881674, 25.935628)"><g><path d="M 2.859375 0 L 2.53125 -0.90625 L 1.1875 -0.90625 L 0.875 0 L 0.125 0 L 1.421875 -3.546875 L 2.296875 -3.546875 L 3.59375 0 Z M 1.859375 -3 L 1.84375 -2.953125 C 1.820312 -2.890625 1.800781 -2.816406 1.78125 -2.734375 C 1.757812 -2.660156 1.617188 -2.238281 1.359375 -1.46875 L 2.375 -1.46875 L 2.015625 -2.484375 L 1.90625 -2.828125 Z M 1.859375 -3 "/></g></g></g><g fill="#271a4c" fill-opacity="1"><g transform="translate(62.61522, 25.935628)"><g><path d="M 0.34375 0 L 0.34375 -3.546875 L 1.09375 -3.546875 L 1.09375 -0.578125 L 2.984375 -0.578125 L 2.984375 0 Z M 0.34375 0 "/></g></g></g><g fill="#271a4c" fill-opacity="1"><g transform="translate(66.774822, 25.935628)"><g/></g></g><g fill="#271a4c" fill-opacity="1"><g transform="translate(69.217626, 25.935628)"><g><path d="M 3.234375 -1.015625 C 3.234375 -0.671875 3.101562 -0.40625 2.84375 -0.21875 C 2.59375 -0.0390625 2.21875 0.046875 1.71875 0.046875 C 1.257812 0.046875 0.898438 -0.03125 0.640625 -0.1875 C 0.390625 -0.351562 0.226562 -0.597656 0.15625 -0.921875 L 0.859375 -1.046875 C 0.910156 -0.859375 1.003906 -0.71875 1.140625 -0.625 C 1.285156 -0.539062 1.484375 -0.5 1.734375 -0.5 C 2.253906 -0.5 2.515625 -0.660156 2.515625 -0.984375 C 2.515625 -1.078125 2.484375 -1.15625 2.421875 -1.21875 C 2.367188 -1.289062 2.285156 -1.347656 2.171875 -1.390625 C 2.066406 -1.429688 1.859375 -1.484375 1.546875 -1.546875 C 1.285156 -1.609375 1.101562 -1.65625 1 -1.6875 C 0.894531 -1.726562 0.800781 -1.773438 0.71875 -1.828125 C 0.632812 -1.878906 0.5625 -1.941406 0.5 -2.015625 C 0.4375 -2.085938 0.390625 -2.171875 0.359375 -2.265625 C 0.328125 -2.367188 0.3125 -2.484375 0.3125 -2.609375 C 0.3125 -2.929688 0.429688 -3.175781 0.671875 -3.34375 C 0.910156 -3.507812 1.265625 -3.59375 1.734375 -3.59375 C 2.171875 -3.59375 2.5 -3.523438 2.71875 -3.390625 C 2.9375 -3.253906 3.078125 -3.03125 3.140625 -2.71875 L 2.421875 -2.609375 C 2.390625 -2.765625 2.316406 -2.878906 2.203125 -2.953125 C 2.085938 -3.035156 1.925781 -3.078125 1.71875 -3.078125 C 1.257812 -3.078125 1.03125 -2.9375 1.03125 -2.65625 C 1.03125 -2.5625 1.054688 -2.484375 1.109375 -2.421875 C 1.160156 -2.367188 1.234375 -2.320312 1.328125 -2.28125 C 1.421875 -2.238281 1.609375 -2.1875 1.890625 -2.125 C 2.234375 -2.050781 2.476562 -1.984375 2.625 -1.921875 C 2.769531 -1.859375 2.882812 -1.785156 2.96875 -1.703125 C 3.0625 -1.617188 3.128906 -1.519531 3.171875 -1.40625 C 3.210938 -1.300781 3.234375 -1.171875 3.234375 -1.015625 Z M 3.234375 -1.015625 "/></g></g></g><g fill="#271a4c" fill-opacity="1"><g transform="translate(73.666716, 25.935628)"><g><path d="M 0.34375 0 L 0.34375 -3.546875 L 3.140625 -3.546875 L 3.140625 -2.96875 L 1.09375 -2.96875 L 1.09375 -2.078125 L 2.984375 -2.078125 L 2.984375 -1.515625 L 1.09375 -1.515625 L 1.09375 -0.578125 L 3.234375 -0.578125 L 3.234375 0 Z M 0.34375 0 "/></g></g></g><g fill="#271a4c" fill-opacity="1"><g transform="translate(78.115805, 25.935628)"><g><path d="M 2.78125 0 L 1.953125 -1.34375 L 1.09375 -1.34375 L 1.09375 0 L 0.34375 0 L 0.34375 -3.546875 L 2.125 -3.546875 C 2.539062 -3.546875 2.863281 -3.453125 3.09375 -3.265625 C 3.320312 -3.085938 3.4375 -2.828125 3.4375 -2.484375 C 3.4375 -2.242188 3.363281 -2.03125 3.21875 -1.84375 C 3.082031 -1.664062 2.894531 -1.546875 2.65625 -1.484375 L 3.625 0 Z M 2.6875 -2.453125 C 2.6875 -2.796875 2.472656 -2.96875 2.046875 -2.96875 L 1.09375 -2.96875 L 1.09375 -1.921875 L 2.0625 -1.921875 C 2.269531 -1.921875 2.425781 -1.96875 2.53125 -2.0625 C 2.632812 -2.15625 2.6875 -2.285156 2.6875 -2.453125 Z M 2.6875 -2.453125 "/></g></g></g><g fill="#271a4c" fill-opacity="1"><g transform="translate(82.849349, 25.935628)"><g><path d="M 2.09375 0 L 1.34375 0 L 0.03125 -3.546875 L 0.8125 -3.546875 L 1.546875 -1.265625 C 1.585938 -1.117188 1.648438 -0.894531 1.734375 -0.59375 L 1.78125 -0.8125 L 1.90625 -1.265625 L 2.640625 -3.546875 L 3.40625 -3.546875 Z M 2.09375 0 "/></g></g></g><g fill="#271a4c" fill-opacity="1"><g transform="translate(87.298439, 25.935628)"><g><path d="M 0.34375 0 L 0.34375 -3.546875 L 1.09375 -3.546875 L 1.09375 0 Z M 0.34375 0 "/></g></g></g><g fill="#271a4c" fill-opacity="1"><g transform="translate(89.741243, 25.935628)"><g><path d="M 2 -0.53125 C 2.445312 -0.53125 2.757812 -0.753906 2.9375 -1.203125 L 3.578125 -0.96875 C 3.441406 -0.625 3.238281 -0.367188 2.96875 -0.203125 C 2.695312 -0.0351562 2.375 0.046875 2 0.046875 C 1.425781 0.046875 0.984375 -0.113281 0.671875 -0.4375 C 0.367188 -0.757812 0.21875 -1.210938 0.21875 -1.796875 C 0.21875 -2.367188 0.363281 -2.8125 0.65625 -3.125 C 0.957031 -3.4375 1.394531 -3.59375 1.96875 -3.59375 C 2.382812 -3.59375 2.722656 -3.507812 2.984375 -3.34375 C 3.242188 -3.175781 3.425781 -2.929688 3.53125 -2.609375 L 2.875 -2.4375 C 2.820312 -2.613281 2.710938 -2.753906 2.546875 -2.859375 C 2.390625 -2.960938 2.203125 -3.015625 1.984375 -3.015625 C 1.648438 -3.015625 1.394531 -2.910156 1.21875 -2.703125 C 1.039062 -2.492188 0.953125 -2.191406 0.953125 -1.796875 C 0.953125 -1.378906 1.039062 -1.0625 1.21875 -0.84375 C 1.40625 -0.632812 1.664062 -0.53125 2 -0.53125 Z M 2 -0.53125 "/></g></g></g><g fill="#271a4c" fill-opacity="1"><g transform="translate(94.47479, 25.935628)"><g><path d="M 0.34375 0 L 0.34375 -3.546875 L 3.140625 -3.546875 L 3.140625 -2.96875 L 1.09375 -2.96875 L 1.09375 -2.078125 L 2.984375 -2.078125 L 2.984375 -1.515625 L 1.09375 -1.515625 L 1.09375 -0.578125 L 3.234375 -0.578125 L 3.234375 0 Z M 0.34375 0 "/></g></g></g><g fill="#271a4c" fill-opacity="1"><g transform="translate(98.923883, 25.935628)"><g><path d="M 3.234375 -1.015625 C 3.234375 -0.671875 3.101562 -0.40625 2.84375 -0.21875 C 2.59375 -0.0390625 2.21875 0.046875 1.71875 0.046875 C 1.257812 0.046875 0.898438 -0.03125 0.640625 -0.1875 C 0.390625 -0.351562 0.226562 -0.597656 0.15625 -0.921875 L 0.859375 -1.046875 C 0.910156 -0.859375 1.003906 -0.71875 1.140625 -0.625 C 1.285156 -0.539062 1.484375 -0.5 1.734375 -0.5 C 2.253906 -0.5 2.515625 -0.660156 2.515625 -0.984375 C 2.515625 -1.078125 2.484375 -1.15625 2.421875 -1.21875 C 2.367188 -1.289062 2.285156 -1.347656 2.171875 -1.390625 C 2.066406 -1.429688 1.859375 -1.484375 1.546875 -1.546875 C 1.285156 -1.609375 1.101562 -1.65625 1 -1.6875 C 0.894531 -1.726562 0.800781 -1.773438 0.71875 -1.828125 C 0.632812 -1.878906 0.5625 -1.941406 0.5 -2.015625 C 0.4375 -2.085938 0.390625 -2.171875 0.359375 -2.265625 C 0.328125 -2.367188 0.3125 -2.484375 0.3125 -2.609375 C 0.3125 -2.929688 0.429688 -3.175781 0.671875 -3.34375 C 0.910156 -3.507812 1.265625 -3.59375 1.734375 -3.59375 C 2.171875 -3.59375 2.5 -3.523438 2.71875 -3.390625 C 2.9375 -3.253906 3.078125 -3.03125 3.140625 -2.71875 L 2.421875 -2.609375 C 2.390625 -2.765625 2.316406 -2.878906 2.203125 -2.953125 C 2.085938 -3.035156 1.925781 -3.078125 1.71875 -3.078125 C 1.257812 -3.078125 1.03125 -2.9375 1.03125 -2.65625 C 1.03125 -2.5625 1.054688 -2.484375 1.109375 -2.421875 C 1.160156 -2.367188 1.234375 -2.320312 1.328125 -2.28125 C 1.421875 -2.238281 1.609375 -2.1875 1.890625 -2.125 C 2.234375 -2.050781 2.476562 -1.984375 2.625 -1.921875 C 2.769531 -1.859375 2.882812 -1.785156 2.96875 -1.703125 C 3.0625 -1.617188 3.128906 -1.519531 3.171875 -1.40625 C 3.210938 -1.300781 3.234375 -1.171875 3.234375 -1.015625 Z M 3.234375 -1.015625 "/></g></g></g></svg>