<svg xmlns="http://www.w3.org/2000/svg" xmlns:xlink="http://www.w3.org/1999/xlink" width="145" zoomAndPan="magnify" viewBox="0 0 108.75 30.000001" height="40" preserveAspectRatio="xMidYMid meet" version="1.0"><defs><g/></defs><g fill="#271a4c" fill-opacity="1"><g transform="translate(3.840722, 23.919551)"><g><path d="M 13.59375 2.921875 C 13.414062 2.722656 13.367188 2.035156 13.453125 0.859375 C 13.535156 -0.304688 13.726562 -1.566406 14.03125 -2.921875 C 14.195312 -3.679688 14.390625 -4.421875 14.609375 -5.140625 C 14.835938 -5.867188 15.160156 -6.765625 15.578125 -7.828125 C 15.796875 -8.398438 16.050781 -9.050781 16.34375 -9.78125 C 16.632812 -10.507812 16.972656 -11.347656 17.359375 -12.296875 C 17.523438 -12.703125 17.671875 -13.066406 17.796875 -13.390625 C 17.910156 -13.734375 17.96875 -13.921875 17.96875 -13.953125 C 17.96875 -14.078125 17.734375 -13.898438 17.265625 -13.421875 C 16.785156 -12.941406 16.273438 -12.382812 15.734375 -11.75 C 15.054688 -10.9375 14.429688 -10.140625 13.859375 -9.359375 C 13.273438 -8.597656 12.597656 -7.640625 11.828125 -6.484375 C 11.429688 -5.921875 11.070312 -5.410156 10.75 -4.953125 C 10.425781 -4.492188 10.234375 -4.238281 10.171875 -4.1875 C 10.035156 -4.050781 9.863281 -3.984375 9.65625 -3.984375 C 9.457031 -3.972656 9.296875 -4.035156 9.171875 -4.171875 C 8.953125 -4.410156 8.9375 -4.910156 9.125 -5.671875 C 9.332031 -6.429688 9.820312 -7.863281 10.59375 -9.96875 C 11.476562 -12.351562 12.132812 -14.285156 12.5625 -15.765625 C 12.976562 -17.234375 13.085938 -17.96875 12.890625 -17.96875 C 12.765625 -17.96875 12.476562 -17.78125 12.03125 -17.40625 C 11.570312 -17.050781 11.09375 -16.617188 10.59375 -16.109375 C 9.289062 -14.804688 7.988281 -13.207031 6.6875 -11.3125 C 5.382812 -9.425781 4.046875 -7.195312 2.671875 -4.625 C 1.953125 -3.269531 1.457031 -2.378906 1.1875 -1.953125 C 0.914062 -1.546875 0.664062 -1.289062 0.4375 -1.1875 C 0.28125 -1.125 0.171875 -1.101562 0.109375 -1.125 C 0.0351562 -1.125 -0.0664062 -1.171875 -0.203125 -1.265625 C -0.472656 -1.472656 -0.617188 -1.796875 -0.640625 -2.234375 L -0.640625 -2.34375 C -0.640625 -2.800781 -0.535156 -3.53125 -0.328125 -4.53125 C -0.109375 -5.570312 0.1875 -6.671875 0.5625 -7.828125 C 0.914062 -8.992188 1.398438 -10.332031 2.015625 -11.84375 C 2.234375 -12.40625 2.425781 -12.878906 2.59375 -13.265625 C 2.75 -13.660156 2.882812 -13.984375 3 -14.234375 C 3.21875 -14.691406 3.394531 -14.972656 3.53125 -15.078125 C 3.664062 -15.179688 3.835938 -15.207031 4.046875 -15.15625 C 4.328125 -15.070312 4.460938 -14.890625 4.453125 -14.609375 C 4.429688 -14.335938 4.234375 -13.753906 3.859375 -12.859375 C 3.609375 -12.253906 3.363281 -11.632812 3.125 -11 C 2.875 -10.363281 2.640625 -9.738281 2.421875 -9.125 C 2.015625 -8.007812 1.691406 -7.035156 1.453125 -6.203125 C 1.191406 -5.359375 1.082031 -4.867188 1.125 -4.734375 C 1.132812 -4.691406 1.21875 -4.800781 1.375 -5.0625 C 1.519531 -5.332031 1.707031 -5.660156 1.9375 -6.046875 C 3.132812 -8.316406 4.40625 -10.398438 5.75 -12.296875 C 7.082031 -14.203125 8.398438 -15.816406 9.703125 -17.140625 C 10.640625 -18.066406 11.445312 -18.71875 12.125 -19.09375 C 12.53125 -19.289062 12.878906 -19.390625 13.171875 -19.390625 C 13.390625 -19.390625 13.578125 -19.34375 13.734375 -19.25 C 13.910156 -19.113281 14.050781 -18.929688 14.15625 -18.703125 C 14.257812 -18.503906 14.300781 -18.226562 14.28125 -17.875 C 14.28125 -17.226562 14.097656 -16.28125 13.734375 -15.03125 C 13.367188 -13.789062 12.789062 -12.078125 12 -9.890625 C 11.882812 -9.546875 11.78125 -9.25 11.6875 -9 C 11.601562 -8.757812 11.570312 -8.640625 11.59375 -8.640625 C 11.613281 -8.640625 11.707031 -8.742188 11.875 -8.953125 C 12.019531 -9.171875 12.207031 -9.421875 12.4375 -9.703125 C 13.445312 -11.066406 14.476562 -12.34375 15.53125 -13.53125 C 16.582031 -14.695312 17.363281 -15.441406 17.875 -15.765625 C 18.195312 -15.960938 18.492188 -16.070312 18.765625 -16.09375 C 19.035156 -16.09375 19.253906 -15.984375 19.421875 -15.765625 C 19.554688 -15.609375 19.625 -15.378906 19.625 -15.078125 C 19.625 -14.867188 19.582031 -14.625 19.5 -14.34375 C 19.34375 -13.664062 18.898438 -12.46875 18.171875 -10.75 C 17.003906 -7.96875 16.164062 -5.679688 15.65625 -3.890625 C 15.144531 -2.085938 14.859375 -0.375 14.796875 1.25 C 14.765625 1.851562 14.726562 2.265625 14.6875 2.484375 C 14.65625 2.691406 14.597656 2.835938 14.515625 2.921875 C 14.378906 3.054688 14.226562 3.125 14.0625 3.125 C 13.875 3.125 13.71875 3.054688 13.59375 2.921875 Z M 13.59375 2.921875 "/></g></g></g><g fill="#271a4c" fill-opacity="1"><g transform="translate(22.598438, 23.919551)"><g><path d="M 5.765625 -10.328125 C 6.023438 -10.191406 6.132812 -9.992188 6.09375 -9.734375 C 6.082031 -9.492188 5.925781 -8.898438 5.625 -7.953125 C 5.332031 -7.109375 5.09375 -6.347656 4.90625 -5.671875 C 4.738281 -4.972656 4.65625 -4.488281 4.65625 -4.21875 C 4.65625 -3.84375 4.925781 -3.945312 5.46875 -4.53125 C 6.007812 -5.101562 6.785156 -6.117188 7.796875 -7.578125 C 8.054688 -7.929688 8.226562 -8.144531 8.3125 -8.21875 C 8.394531 -8.28125 8.539062 -8.300781 8.75 -8.28125 C 8.945312 -8.269531 9.113281 -8.1875 9.25 -8.03125 C 9.332031 -7.925781 9.375 -7.816406 9.375 -7.703125 C 9.375 -7.648438 9.367188 -7.597656 9.359375 -7.546875 C 9.335938 -7.460938 9.179688 -7.207031 8.890625 -6.78125 C 8.609375 -6.363281 8.289062 -5.925781 7.9375 -5.46875 C 7.695312 -5.144531 7.46875 -4.847656 7.25 -4.578125 C 7.03125 -4.285156 6.84375 -4.054688 6.6875 -3.890625 C 6.070312 -3.210938 5.53125 -2.769531 5.0625 -2.5625 C 4.851562 -2.46875 4.664062 -2.421875 4.5 -2.421875 C 4.257812 -2.421875 4.039062 -2.492188 3.84375 -2.640625 C 3.769531 -2.710938 3.691406 -2.804688 3.609375 -2.921875 C 3.523438 -3.054688 3.46875 -3.175781 3.4375 -3.28125 C 3.351562 -3.53125 3.328125 -3.945312 3.359375 -4.53125 C 3.410156 -5.082031 3.503906 -5.640625 3.640625 -6.203125 C 3.703125 -6.421875 3.75 -6.613281 3.78125 -6.78125 C 3.820312 -6.957031 3.84375 -7.050781 3.84375 -7.0625 C 3.820312 -7.0625 3.742188 -7.015625 3.609375 -6.921875 C 3.472656 -6.816406 3.320312 -6.6875 3.15625 -6.53125 C 2.570312 -6.019531 2.035156 -5.640625 1.546875 -5.390625 C 1.078125 -5.117188 0.679688 -4.984375 0.359375 -4.984375 C 0.273438 -4.984375 0.171875 -5.015625 0.046875 -5.078125 C -0.0664062 -5.148438 -0.1875 -5.242188 -0.3125 -5.359375 C -0.488281 -5.546875 -0.597656 -5.691406 -0.640625 -5.796875 C -0.648438 -5.847656 -0.65625 -5.914062 -0.65625 -6 C -0.65625 -6.082031 -0.648438 -6.191406 -0.640625 -6.328125 C -0.597656 -6.703125 -0.441406 -7.117188 -0.171875 -7.578125 C 0.078125 -8.035156 0.394531 -8.457031 0.78125 -8.84375 C 1.34375 -9.414062 1.894531 -9.796875 2.4375 -9.984375 C 2.96875 -10.191406 3.484375 -10.210938 3.984375 -10.046875 C 4.222656 -9.960938 4.378906 -9.925781 4.453125 -9.9375 C 4.515625 -9.9375 4.625 -10.003906 4.78125 -10.140625 C 4.894531 -10.242188 5.003906 -10.3125 5.109375 -10.34375 C 5.210938 -10.394531 5.304688 -10.421875 5.390625 -10.421875 C 5.453125 -10.421875 5.519531 -10.410156 5.59375 -10.390625 C 5.644531 -10.378906 5.703125 -10.359375 5.765625 -10.328125 Z M 3.125 -8.796875 C 2.875 -8.722656 2.644531 -8.628906 2.4375 -8.515625 C 2.25 -8.378906 2.019531 -8.175781 1.75 -7.90625 C 1.46875 -7.601562 1.25 -7.347656 1.09375 -7.140625 C 0.957031 -6.941406 0.890625 -6.78125 0.890625 -6.65625 C 0.890625 -6.5625 1.023438 -6.601562 1.296875 -6.78125 C 1.566406 -6.96875 1.972656 -7.300781 2.515625 -7.78125 C 2.941406 -8.15625 3.210938 -8.425781 3.328125 -8.59375 C 3.453125 -8.757812 3.4375 -8.835938 3.28125 -8.828125 L 3.203125 -8.828125 C 3.179688 -8.828125 3.15625 -8.816406 3.125 -8.796875 Z M 3.125 -8.796875 "/></g></g></g><g fill="#271a4c" fill-opacity="1"><g transform="translate(30.757282, 23.919551)"><g><path d="M 4.90625 -10.1875 C 5.039062 -10.1875 5.160156 -10.171875 5.265625 -10.140625 C 5.347656 -10.085938 5.441406 -10.003906 5.546875 -9.890625 C 5.660156 -9.734375 5.726562 -9.535156 5.75 -9.296875 L 5.75 -8.875 C 5.75 -8.476562 5.738281 -7.867188 5.71875 -7.046875 C 5.695312 -6.316406 5.664062 -5.601562 5.625 -4.90625 C 5.570312 -4.207031 5.519531 -3.695312 5.46875 -3.375 C 5.226562 -1.769531 4.851562 -0.414062 4.34375 0.6875 C 3.820312 1.789062 3.171875 2.671875 2.390625 3.328125 C 1.679688 3.921875 0.910156 4.320312 0.078125 4.53125 C -0.296875 4.625 -0.660156 4.671875 -1.015625 4.671875 C -1.441406 4.671875 -1.847656 4.601562 -2.234375 4.46875 C -2.796875 4.269531 -3.222656 3.953125 -3.515625 3.515625 C -3.765625 3.140625 -3.890625 2.726562 -3.890625 2.28125 C -3.890625 2.195312 -3.878906 2.109375 -3.859375 2.015625 C -3.742188 0.941406 -3.078125 0.0078125 -1.859375 -0.78125 C -0.648438 -1.582031 0.707031 -1.984375 2.21875 -1.984375 C 2.632812 -1.984375 2.910156 -1.972656 3.046875 -1.953125 C 3.179688 -1.921875 3.289062 -1.851562 3.375 -1.75 L 3.53125 -1.59375 C 3.582031 -1.5625 3.625 -1.546875 3.65625 -1.546875 C 3.726562 -1.546875 3.804688 -1.773438 3.890625 -2.234375 C 3.992188 -2.691406 4.085938 -3.253906 4.171875 -3.921875 C 4.222656 -4.253906 4.265625 -4.609375 4.296875 -4.984375 C 4.328125 -5.359375 4.351562 -5.722656 4.375 -6.078125 L 4.453125 -7.453125 L 3.453125 -6.453125 C 2.910156 -5.910156 2.429688 -5.515625 2.015625 -5.265625 C 1.585938 -5.003906 1.195312 -4.875 0.84375 -4.875 C 0.4375 -4.875 0.140625 -5.035156 -0.046875 -5.359375 C -0.234375 -5.703125 -0.328125 -6.085938 -0.328125 -6.515625 C -0.296875 -7.054688 -0.160156 -7.644531 0.078125 -8.28125 C 0.316406 -8.914062 0.535156 -9.28125 0.734375 -9.375 C 0.898438 -9.457031 1.070312 -9.476562 1.25 -9.4375 C 1.394531 -9.382812 1.507812 -9.269531 1.59375 -9.09375 C 1.644531 -8.976562 1.671875 -8.867188 1.671875 -8.765625 C 1.660156 -8.671875 1.601562 -8.503906 1.5 -8.265625 C 1.34375 -7.859375 1.207031 -7.453125 1.09375 -7.046875 C 0.988281 -6.640625 0.960938 -6.410156 1.015625 -6.359375 C 1.128906 -6.222656 1.492188 -6.441406 2.109375 -7.015625 C 2.703125 -7.578125 3.210938 -8.179688 3.640625 -8.828125 C 4.023438 -9.429688 4.273438 -9.8125 4.390625 -9.96875 C 4.492188 -10.113281 4.625 -10.1875 4.78125 -10.1875 Z M 1.0625 -0.53125 C 0.332031 -0.414062 -0.367188 -0.144531 -1.046875 0.28125 C -1.722656 0.707031 -2.171875 1.164062 -2.390625 1.65625 C -2.710938 2.382812 -2.535156 2.890625 -1.859375 3.171875 C -1.179688 3.460938 -0.359375 3.367188 0.609375 2.890625 C 1.046875 2.671875 1.488281 2.328125 1.9375 1.859375 C 2.394531 1.378906 2.757812 0.867188 3.03125 0.328125 C 3.125 0.109375 3.21875 -0.0820312 3.3125 -0.25 C 3.375 -0.4375 3.40625 -0.546875 3.40625 -0.578125 C 3.40625 -0.617188 3.335938 -0.644531 3.203125 -0.65625 C 3.066406 -0.675781 2.890625 -0.6875 2.671875 -0.6875 C 2.453125 -0.6875 2.195312 -0.671875 1.90625 -0.640625 C 1.632812 -0.617188 1.351562 -0.582031 1.0625 -0.53125 Z M 1.0625 -0.53125 "/></g></g></g><g fill="#271a4c" fill-opacity="1"><g transform="translate(37.518193, 23.919551)"><g/></g></g><g fill="#271a4c" fill-opacity="1"><g transform="translate(44.533273, 23.919551)"><g><path d="M 1.453125 -0.203125 C 1.160156 -0.367188 0.960938 -0.640625 0.859375 -1.015625 C 0.765625 -1.367188 0.71875 -1.953125 0.71875 -2.765625 C 0.71875 -3.171875 0.738281 -3.644531 0.78125 -4.1875 C 0.832031 -4.738281 0.898438 -5.316406 0.984375 -5.921875 C 1.160156 -7.078125 1.382812 -8.332031 1.65625 -9.6875 C 1.925781 -11.019531 2.222656 -12.316406 2.546875 -13.578125 C 2.816406 -14.679688 2.992188 -15.414062 3.078125 -15.78125 C 3.140625 -16.15625 3.140625 -16.367188 3.078125 -16.421875 C 2.992188 -16.472656 2.726562 -16.296875 2.28125 -15.890625 C 1.820312 -15.492188 1.332031 -15.007812 0.8125 -14.4375 C 0.269531 -13.84375 -0.109375 -13.503906 -0.328125 -13.421875 C -0.535156 -13.335938 -0.75 -13.429688 -0.96875 -13.703125 C -1.070312 -13.835938 -1.125 -13.9375 -1.125 -14 L -1.125 -14.03125 C -1.125 -14.082031 -1.085938 -14.1875 -1.015625 -14.34375 C -0.910156 -14.507812 -0.675781 -14.796875 -0.3125 -15.203125 C 0.0820312 -15.628906 0.492188 -16.035156 0.921875 -16.421875 C 1.203125 -16.691406 1.472656 -16.929688 1.734375 -17.140625 C 1.960938 -17.359375 2.144531 -17.5 2.28125 -17.5625 C 2.6875 -17.800781 3.046875 -17.921875 3.359375 -17.921875 C 3.660156 -17.921875 3.90625 -17.8125 4.09375 -17.59375 C 4.382812 -17.25 4.507812 -16.828125 4.46875 -16.328125 C 4.457031 -15.816406 4.265625 -14.832031 3.890625 -13.375 C 3.703125 -12.695312 3.53125 -12.007812 3.375 -11.3125 C 3.226562 -10.601562 3.078125 -9.910156 2.921875 -9.234375 C 2.671875 -7.941406 2.46875 -6.726562 2.3125 -5.59375 C 2.144531 -4.457031 2.0625 -3.535156 2.0625 -2.828125 C 2.0625 -2.097656 2.101562 -1.6875 2.1875 -1.59375 C 2.25 -1.507812 2.453125 -1.65625 2.796875 -2.03125 C 3.171875 -2.425781 3.5625 -2.925781 3.96875 -3.53125 C 4.375 -4.125 4.941406 -5.039062 5.671875 -6.28125 C 6.054688 -6.9375 6.503906 -7.71875 7.015625 -8.625 C 7.523438 -9.519531 8.117188 -10.566406 8.796875 -11.765625 C 9.046875 -12.210938 9.328125 -12.695312 9.640625 -13.21875 C 9.941406 -13.757812 10.257812 -14.300781 10.59375 -14.84375 C 11.1875 -15.863281 11.765625 -16.820312 12.328125 -17.71875 C 12.890625 -18.613281 13.289062 -19.21875 13.53125 -19.53125 C 13.726562 -19.8125 13.878906 -19.992188 13.984375 -20.078125 C 14.085938 -20.160156 14.207031 -20.203125 14.34375 -20.203125 C 14.507812 -20.203125 14.671875 -20.144531 14.828125 -20.03125 C 14.960938 -19.894531 15.03125 -19.75 15.03125 -19.59375 C 15.03125 -19.550781 14.941406 -19.382812 14.765625 -19.09375 C 14.617188 -18.820312 14.425781 -18.515625 14.1875 -18.171875 C 14.050781 -17.972656 13.765625 -17.5 13.328125 -16.75 C 12.867188 -16.007812 12.398438 -15.238281 11.921875 -14.4375 C 11.597656 -13.914062 11.300781 -13.425781 11.03125 -12.96875 C 10.757812 -12.507812 10.566406 -12.160156 10.453125 -11.921875 C 9.648438 -10.515625 8.953125 -9.300781 8.359375 -8.28125 C 7.785156 -7.269531 7.285156 -6.398438 6.859375 -5.671875 C 6.066406 -4.328125 5.472656 -3.359375 5.078125 -2.765625 C 4.691406 -2.191406 4.3125 -1.703125 3.9375 -1.296875 C 3.601562 -0.910156 3.253906 -0.597656 2.890625 -0.359375 C 2.554688 -0.117188 2.28125 0 2.0625 0 C 1.988281 0 1.894531 -0.015625 1.78125 -0.046875 C 1.644531 -0.0976562 1.535156 -0.148438 1.453125 -0.203125 Z M 1.453125 -0.203125 "/></g></g></g><g fill="#271a4c" fill-opacity="1"><g transform="translate(58.080512, 23.919551)"><g><path d="M 3.4375 -10.1875 C 3.707031 -10.09375 3.910156 -9.941406 4.046875 -9.734375 C 4.179688 -9.535156 4.25 -9.265625 4.25 -8.921875 C 4.25 -8.296875 4.007812 -7.703125 3.53125 -7.140625 C 3.070312 -6.566406 2.410156 -6.066406 1.546875 -5.640625 C 1.328125 -5.523438 0.988281 -5.359375 0.53125 -5.140625 C 0.46875 -4.910156 0.460938 -4.710938 0.515625 -4.546875 C 0.554688 -4.359375 0.628906 -4.207031 0.734375 -4.09375 C 0.804688 -3.988281 0.914062 -3.929688 1.0625 -3.921875 C 1.195312 -3.878906 1.394531 -3.867188 1.65625 -3.890625 C 2.257812 -3.941406 2.992188 -4.238281 3.859375 -4.78125 C 4.722656 -5.320312 5.691406 -6.101562 6.765625 -7.125 C 7.066406 -7.425781 7.34375 -7.6875 7.59375 -7.90625 C 7.851562 -8.125 8.007812 -8.242188 8.0625 -8.265625 C 8.226562 -8.316406 8.394531 -8.273438 8.5625 -8.140625 C 8.71875 -7.984375 8.796875 -7.800781 8.796875 -7.59375 C 8.796875 -7.445312 8.726562 -7.289062 8.59375 -7.125 C 8.457031 -6.945312 8.144531 -6.625 7.65625 -6.15625 C 6.332031 -4.832031 5.0625 -3.847656 3.84375 -3.203125 C 2.894531 -2.691406 2.078125 -2.4375 1.390625 -2.4375 C 1.210938 -2.4375 1.03125 -2.460938 0.84375 -2.515625 C 0.195312 -2.679688 -0.269531 -3.054688 -0.5625 -3.640625 C -0.75 -4.003906 -0.84375 -4.425781 -0.84375 -4.90625 C -0.84375 -5.175781 -0.816406 -5.460938 -0.765625 -5.765625 C -0.523438 -6.921875 -0.015625 -7.945312 0.765625 -8.84375 C 1.546875 -9.757812 2.289062 -10.226562 3 -10.25 L 3.234375 -10.25 Z M 1.390625 -7.5 C 1.222656 -7.207031 1.140625 -7.035156 1.140625 -6.984375 C 1.160156 -6.941406 1.28125 -6.976562 1.5 -7.09375 C 1.875 -7.28125 2.238281 -7.617188 2.59375 -8.109375 C 2.96875 -8.597656 3.035156 -8.84375 2.796875 -8.84375 C 2.710938 -8.84375 2.492188 -8.675781 2.140625 -8.34375 C 1.796875 -8 1.546875 -7.71875 1.390625 -7.5 Z M 1.390625 -7.5 "/></g></g></g><g fill="#271a4c" fill-opacity="1"><g transform="translate(65.883518, 23.919551)"><g><path d="M 7.546875 -16.5 C 7.546875 -15.445312 7.113281 -14.132812 6.25 -12.5625 C 5.40625 -10.976562 4.332031 -9.507812 3.03125 -8.15625 C 2.71875 -7.832031 2.398438 -7.535156 2.078125 -7.265625 C 1.773438 -6.984375 1.566406 -6.804688 1.453125 -6.734375 C 1.179688 -6.566406 1.007812 -6.375 0.9375 -6.15625 C 0.875 -5.9375 0.84375 -5.441406 0.84375 -4.671875 C 0.84375 -4.128906 0.890625 -3.707031 0.984375 -3.40625 C 1.109375 -3.113281 1.269531 -2.953125 1.46875 -2.921875 C 1.945312 -2.859375 2.675781 -3.238281 3.65625 -4.0625 C 4.644531 -4.875 5.546875 -5.925781 6.359375 -7.21875 C 6.597656 -7.59375 6.785156 -7.847656 6.921875 -7.984375 C 7.054688 -8.097656 7.207031 -8.15625 7.375 -8.15625 C 7.539062 -8.15625 7.679688 -8.085938 7.796875 -7.953125 C 7.898438 -7.835938 7.953125 -7.6875 7.953125 -7.5 C 7.953125 -7.289062 7.734375 -6.882812 7.296875 -6.28125 C 6.859375 -5.6875 6.367188 -5.078125 5.828125 -4.453125 C 5.515625 -4.128906 5.21875 -3.820312 4.9375 -3.53125 C 4.644531 -3.226562 4.378906 -2.984375 4.140625 -2.796875 C 3.441406 -2.203125 2.765625 -1.820312 2.109375 -1.65625 C 1.867188 -1.582031 1.640625 -1.546875 1.421875 -1.546875 C 1.066406 -1.546875 0.765625 -1.640625 0.515625 -1.828125 C -0.179688 -2.285156 -0.523438 -3.269531 -0.515625 -4.78125 C -0.515625 -6.300781 -0.164062 -8.046875 0.53125 -10.015625 C 0.632812 -10.265625 0.753906 -10.570312 0.890625 -10.9375 C 1.046875 -11.269531 1.207031 -11.632812 1.375 -12.03125 C 1.707031 -12.738281 2.054688 -13.445312 2.421875 -14.15625 C 2.785156 -14.875 3.101562 -15.425781 3.375 -15.8125 C 3.875 -16.570312 4.375 -17.179688 4.875 -17.640625 C 5.40625 -18.097656 5.835938 -18.328125 6.171875 -18.328125 C 6.617188 -18.328125 6.957031 -18.175781 7.1875 -17.875 C 7.425781 -17.5625 7.546875 -17.101562 7.546875 -16.5 Z M 4.46875 -15.046875 C 4.269531 -14.710938 4.023438 -14.28125 3.734375 -13.75 C 3.453125 -13.207031 3.171875 -12.65625 2.890625 -12.09375 C 2.484375 -11.226562 2.144531 -10.441406 1.875 -9.734375 C 1.59375 -9.023438 1.5 -8.671875 1.59375 -8.671875 C 1.632812 -8.671875 1.726562 -8.753906 1.875 -8.921875 C 2.050781 -9.078125 2.238281 -9.265625 2.4375 -9.484375 C 3.1875 -10.296875 3.890625 -11.234375 4.546875 -12.296875 C 5.210938 -13.367188 5.671875 -14.3125 5.921875 -15.125 C 6.035156 -15.476562 6.113281 -15.859375 6.15625 -16.265625 C 6.1875 -16.691406 6.160156 -16.90625 6.078125 -16.90625 C 5.992188 -16.90625 5.773438 -16.703125 5.421875 -16.296875 C 5.078125 -15.898438 4.757812 -15.484375 4.46875 -15.046875 Z M 4.46875 -15.046875 "/></g></g></g><g fill="#271a4c" fill-opacity="1"><g transform="translate(72.669846, 23.919551)"><g><path d="M 3.71875 -2.5625 C 3.539062 -2.632812 3.378906 -2.78125 3.234375 -3 C 3.078125 -3.21875 2.972656 -3.4375 2.921875 -3.65625 C 2.898438 -3.757812 2.898438 -3.921875 2.921875 -4.140625 C 2.921875 -4.378906 2.9375 -4.59375 2.96875 -4.78125 C 3.007812 -4.976562 3.035156 -5.15625 3.046875 -5.3125 C 3.066406 -5.46875 3.066406 -5.550781 3.046875 -5.5625 L 2.84375 -5.4375 C 2.707031 -5.332031 2.554688 -5.210938 2.390625 -5.078125 C 2.066406 -4.828125 1.753906 -4.632812 1.453125 -4.5 C 1.128906 -4.382812 0.859375 -4.359375 0.640625 -4.421875 C 0.554688 -4.441406 0.460938 -4.484375 0.359375 -4.546875 C 0.234375 -4.628906 0.128906 -4.710938 0.046875 -4.796875 C -0.0976562 -4.972656 -0.207031 -5.203125 -0.28125 -5.484375 C -0.3125 -5.660156 -0.328125 -5.847656 -0.328125 -6.046875 C -0.328125 -6.203125 -0.320312 -6.359375 -0.3125 -6.515625 C -0.289062 -6.679688 -0.226562 -7.007812 -0.125 -7.5 C -0.0078125 -8.007812 0.0703125 -8.359375 0.125 -8.546875 C 0.195312 -8.773438 0.257812 -8.976562 0.3125 -9.15625 C 0.375 -9.300781 0.445312 -9.414062 0.53125 -9.5 C 0.613281 -9.570312 0.707031 -9.617188 0.8125 -9.640625 C 0.894531 -9.648438 1.015625 -9.640625 1.171875 -9.609375 C 1.273438 -9.578125 1.359375 -9.535156 1.421875 -9.484375 C 1.492188 -9.410156 1.535156 -9.328125 1.546875 -9.234375 C 1.566406 -9.128906 1.566406 -9 1.546875 -8.84375 C 1.535156 -8.695312 1.492188 -8.503906 1.421875 -8.265625 C 1.390625 -8.128906 1.320312 -7.835938 1.21875 -7.390625 C 1.113281 -6.953125 1.054688 -6.679688 1.046875 -6.578125 C 1.003906 -6.378906 0.992188 -6.210938 1.015625 -6.078125 C 1.035156 -5.953125 1.070312 -5.875 1.125 -5.84375 C 1.21875 -5.78125 1.535156 -6.0625 2.078125 -6.6875 C 2.617188 -7.289062 3.085938 -7.914062 3.484375 -8.5625 C 3.890625 -9.226562 4.191406 -9.632812 4.390625 -9.78125 C 4.484375 -9.851562 4.578125 -9.890625 4.671875 -9.890625 C 4.796875 -9.890625 4.925781 -9.847656 5.0625 -9.765625 C 5.125 -9.710938 5.191406 -9.644531 5.265625 -9.5625 C 5.328125 -9.476562 5.367188 -9.398438 5.390625 -9.328125 C 5.410156 -9.265625 5.375 -9.03125 5.28125 -8.625 C 5.195312 -8.226562 5.085938 -7.785156 4.953125 -7.296875 C 4.804688 -6.804688 4.679688 -6.316406 4.578125 -5.828125 C 4.453125 -5.328125 4.382812 -4.984375 4.375 -4.796875 C 4.351562 -4.628906 4.335938 -4.382812 4.328125 -4.0625 C 4.410156 -4.164062 4.546875 -4.320312 4.734375 -4.53125 C 4.847656 -4.644531 5.039062 -4.894531 5.3125 -5.28125 C 5.582031 -5.65625 5.851562 -6.046875 6.125 -6.453125 C 6.382812 -6.878906 6.628906 -7.253906 6.859375 -7.578125 C 7.078125 -7.910156 7.210938 -8.101562 7.265625 -8.15625 C 7.453125 -8.363281 7.675781 -8.40625 7.9375 -8.28125 C 8.207031 -8.164062 8.34375 -7.957031 8.34375 -7.65625 C 8.34375 -7.570312 8.222656 -7.332031 7.984375 -6.9375 C 7.765625 -6.53125 7.507812 -6.097656 7.21875 -5.640625 C 7.0625 -5.390625 6.910156 -5.15625 6.765625 -4.9375 C 6.597656 -4.695312 6.441406 -4.492188 6.296875 -4.328125 C 5.773438 -3.628906 5.296875 -3.128906 4.859375 -2.828125 C 4.546875 -2.617188 4.265625 -2.515625 4.015625 -2.515625 C 3.910156 -2.515625 3.8125 -2.53125 3.71875 -2.5625 Z M 3.71875 -2.5625 "/></g></g></g><g fill="#271a4c" fill-opacity="1"><g transform="translate(79.786595, 23.919551)"><g><path d="M -0.109375 -3.78125 C -0.378906 -3.9375 -0.535156 -4.21875 -0.578125 -4.625 C -0.597656 -4.738281 -0.609375 -4.867188 -0.609375 -5.015625 C -0.609375 -5.347656 -0.554688 -5.753906 -0.453125 -6.234375 C -0.398438 -6.484375 -0.328125 -6.800781 -0.234375 -7.1875 C -0.109375 -7.5625 0.0195312 -7.960938 0.15625 -8.390625 C 0.351562 -8.992188 0.554688 -9.570312 0.765625 -10.125 C 0.953125 -10.644531 1.078125 -10.9375 1.140625 -11 C 1.273438 -11.132812 1.425781 -11.203125 1.59375 -11.203125 C 1.6875 -11.203125 1.773438 -11.1875 1.859375 -11.15625 C 2.128906 -11.050781 2.265625 -10.859375 2.265625 -10.578125 C 2.265625 -10.523438 2.222656 -10.351562 2.140625 -10.0625 C 2.054688 -9.78125 1.953125 -9.476562 1.828125 -9.15625 C 1.554688 -8.382812 1.320312 -7.628906 1.125 -6.890625 C 0.894531 -6.160156 0.800781 -5.742188 0.84375 -5.640625 C 0.851562 -5.609375 0.945312 -5.691406 1.125 -5.890625 C 1.300781 -6.097656 1.507812 -6.363281 1.75 -6.6875 C 2.832031 -8.09375 3.671875 -9.097656 4.265625 -9.703125 C 4.847656 -10.296875 5.347656 -10.65625 5.765625 -10.78125 C 6.160156 -10.882812 6.492188 -10.820312 6.765625 -10.59375 C 7.015625 -10.375 7.140625 -10.035156 7.140625 -9.578125 C 7.140625 -9.484375 7.113281 -9.253906 7.0625 -8.890625 C 7.007812 -8.535156 6.941406 -8.164062 6.859375 -7.78125 C 6.710938 -7 6.628906 -6.445312 6.609375 -6.125 C 6.585938 -5.820312 6.628906 -5.671875 6.734375 -5.671875 C 6.890625 -5.671875 7.222656 -5.878906 7.734375 -6.296875 C 8.234375 -6.742188 8.695312 -7.175781 9.125 -7.59375 C 9.226562 -7.71875 9.320312 -7.8125 9.40625 -7.875 L 9.640625 -8.109375 C 9.960938 -8.347656 10.210938 -8.304688 10.390625 -7.984375 C 10.492188 -7.828125 10.546875 -7.675781 10.546875 -7.53125 C 10.546875 -7.394531 10.503906 -7.265625 10.421875 -7.140625 C 9.453125 -6.054688 8.691406 -5.328125 8.140625 -4.953125 C 7.578125 -4.578125 7.1875 -4.367188 6.96875 -4.328125 C 6.707031 -4.273438 6.519531 -4.253906 6.40625 -4.265625 C 6.300781 -4.265625 6.175781 -4.316406 6.03125 -4.421875 C 5.625 -4.640625 5.382812 -5.003906 5.3125 -5.515625 C 5.226562 -6.023438 5.285156 -6.785156 5.484375 -7.796875 C 5.554688 -8.140625 5.609375 -8.4375 5.640625 -8.6875 C 5.671875 -8.925781 5.671875 -9.0625 5.640625 -9.09375 C 5.585938 -9.144531 5.367188 -8.960938 4.984375 -8.546875 C 4.585938 -8.097656 4.085938 -7.46875 3.484375 -6.65625 C 2.484375 -5.332031 1.726562 -4.46875 1.21875 -4.0625 C 0.894531 -3.8125 0.597656 -3.6875 0.328125 -3.6875 C 0.179688 -3.6875 0.0351562 -3.71875 -0.109375 -3.78125 Z M -0.109375 -3.78125 "/></g></g></g><g fill="#271a4c" fill-opacity="1"><g transform="translate(89.190869, 23.919551)"><g><path d="M 0.40625 -0.734375 C 0.320312 -0.753906 0.210938 -0.804688 0.078125 -0.890625 C -0.0546875 -0.953125 -0.175781 -1.046875 -0.28125 -1.171875 C -0.5 -1.390625 -0.660156 -1.703125 -0.765625 -2.109375 C -0.828125 -2.378906 -0.859375 -2.664062 -0.859375 -2.96875 C -0.859375 -3.144531 -0.851562 -3.316406 -0.84375 -3.484375 C -0.800781 -3.785156 -0.722656 -4.179688 -0.609375 -4.671875 C -0.503906 -5.171875 -0.367188 -5.710938 -0.203125 -6.296875 C 0.0976562 -7.390625 0.472656 -8.578125 0.921875 -9.859375 C 1.359375 -11.128906 1.796875 -12.265625 2.234375 -13.265625 C 2.390625 -13.617188 2.507812 -13.925781 2.59375 -14.1875 C 2.675781 -14.4375 2.707031 -14.570312 2.6875 -14.59375 C 2.675781 -14.601562 2.59375 -14.601562 2.4375 -14.59375 C 2.289062 -14.570312 2.101562 -14.546875 1.875 -14.515625 C 1.675781 -14.484375 1.445312 -14.445312 1.1875 -14.40625 C 0.9375 -14.363281 0.726562 -14.332031 0.5625 -14.3125 C 0.300781 -14.289062 0.128906 -14.289062 0.046875 -14.3125 C -0.015625 -14.34375 -0.0976562 -14.425781 -0.203125 -14.5625 C -0.285156 -14.695312 -0.328125 -14.800781 -0.328125 -14.875 C -0.347656 -14.9375 -0.316406 -15.03125 -0.234375 -15.15625 C -0.128906 -15.34375 0.0546875 -15.484375 0.328125 -15.578125 C 0.597656 -15.660156 1.109375 -15.765625 1.859375 -15.890625 C 2.179688 -15.941406 2.476562 -15.992188 2.75 -16.046875 C 3.019531 -16.085938 3.1875 -16.109375 3.25 -16.109375 C 3.332031 -16.128906 3.441406 -16.25 3.578125 -16.46875 C 3.710938 -16.6875 3.898438 -17.046875 4.140625 -17.546875 C 4.441406 -18.171875 4.644531 -18.554688 4.75 -18.703125 C 4.851562 -18.835938 4.988281 -18.914062 5.15625 -18.9375 L 5.234375 -18.9375 C 5.398438 -18.9375 5.546875 -18.882812 5.671875 -18.78125 C 5.804688 -18.6875 5.875 -18.535156 5.875 -18.328125 C 5.875 -18.265625 5.835938 -18.140625 5.765625 -17.953125 C 5.703125 -17.773438 5.628906 -17.59375 5.546875 -17.40625 L 5.28125 -16.90625 L 5.140625 -16.53125 L 5.0625 -16.296875 L 6.515625 -16.296875 C 7.285156 -16.296875 7.773438 -16.253906 7.984375 -16.171875 C 8.203125 -16.085938 8.3125 -15.890625 8.3125 -15.578125 C 8.3125 -15.328125 8.191406 -15.160156 7.953125 -15.078125 C 7.734375 -14.992188 7.273438 -14.953125 6.578125 -14.953125 C 6.242188 -14.953125 5.90625 -14.941406 5.5625 -14.921875 C 5.226562 -14.898438 4.992188 -14.882812 4.859375 -14.875 C 4.753906 -14.851562 4.59375 -14.828125 4.375 -14.796875 C 4.238281 -14.492188 4.039062 -14.046875 3.78125 -13.453125 C 3.664062 -13.191406 3.523438 -12.84375 3.359375 -12.40625 C 3.179688 -11.96875 2.992188 -11.484375 2.796875 -10.953125 C 2.441406 -9.984375 2.078125 -8.984375 1.703125 -7.953125 C 1.328125 -6.921875 1.070312 -6.132812 0.9375 -5.59375 C 0.851562 -5.25 0.78125 -4.875 0.71875 -4.46875 C 0.644531 -4.082031 0.597656 -3.710938 0.578125 -3.359375 C 0.566406 -2.847656 0.5625 -2.523438 0.5625 -2.390625 C 0.570312 -2.253906 0.628906 -2.171875 0.734375 -2.140625 C 1.035156 -2.015625 1.734375 -2.425781 2.828125 -3.375 C 3.890625 -4.320312 5 -5.519531 6.15625 -6.96875 C 6.664062 -7.570312 7.007812 -7.96875 7.1875 -8.15625 C 7.363281 -8.34375 7.519531 -8.4375 7.65625 -8.4375 C 7.84375 -8.4375 8.003906 -8.367188 8.140625 -8.234375 C 8.273438 -8.097656 8.34375 -7.945312 8.34375 -7.78125 C 8.34375 -7.707031 8.273438 -7.570312 8.140625 -7.375 C 8.015625 -7.164062 7.84375 -6.921875 7.625 -6.640625 C 7.21875 -6.109375 6.707031 -5.492188 6.09375 -4.796875 C 5.46875 -4.109375 4.867188 -3.484375 4.296875 -2.921875 C 3.429688 -2.054688 2.703125 -1.460938 2.109375 -1.140625 C 1.617188 -0.867188 1.144531 -0.734375 0.6875 -0.734375 Z M 0.40625 -0.734375 "/></g></g></g><g fill="#271a4c" fill-opacity="1"><g transform="translate(96.485536, 23.919551)"><g><path d="M 5.765625 -10.328125 C 6.023438 -10.191406 6.132812 -9.992188 6.09375 -9.734375 C 6.082031 -9.492188 5.925781 -8.898438 5.625 -7.953125 C 5.332031 -7.109375 5.09375 -6.347656 4.90625 -5.671875 C 4.738281 -4.972656 4.65625 -4.488281 4.65625 -4.21875 C 4.65625 -3.84375 4.925781 -3.945312 5.46875 -4.53125 C 6.007812 -5.101562 6.785156 -6.117188 7.796875 -7.578125 C 8.054688 -7.929688 8.226562 -8.144531 8.3125 -8.21875 C 8.394531 -8.28125 8.539062 -8.300781 8.75 -8.28125 C 8.945312 -8.269531 9.113281 -8.1875 9.25 -8.03125 C 9.332031 -7.925781 9.375 -7.816406 9.375 -7.703125 C 9.375 -7.648438 9.367188 -7.597656 9.359375 -7.546875 C 9.335938 -7.460938 9.179688 -7.207031 8.890625 -6.78125 C 8.609375 -6.363281 8.289062 -5.925781 7.9375 -5.46875 C 7.695312 -5.144531 7.46875 -4.847656 7.25 -4.578125 C 7.03125 -4.285156 6.84375 -4.054688 6.6875 -3.890625 C 6.070312 -3.210938 5.53125 -2.769531 5.0625 -2.5625 C 4.851562 -2.46875 4.664062 -2.421875 4.5 -2.421875 C 4.257812 -2.421875 4.039062 -2.492188 3.84375 -2.640625 C 3.769531 -2.710938 3.691406 -2.804688 3.609375 -2.921875 C 3.523438 -3.054688 3.46875 -3.175781 3.4375 -3.28125 C 3.351562 -3.53125 3.328125 -3.945312 3.359375 -4.53125 C 3.410156 -5.082031 3.503906 -5.640625 3.640625 -6.203125 C 3.703125 -6.421875 3.75 -6.613281 3.78125 -6.78125 C 3.820312 -6.957031 3.84375 -7.050781 3.84375 -7.0625 C 3.820312 -7.0625 3.742188 -7.015625 3.609375 -6.921875 C 3.472656 -6.816406 3.320312 -6.6875 3.15625 -6.53125 C 2.570312 -6.019531 2.035156 -5.640625 1.546875 -5.390625 C 1.078125 -5.117188 0.679688 -4.984375 0.359375 -4.984375 C 0.273438 -4.984375 0.171875 -5.015625 0.046875 -5.078125 C -0.0664062 -5.148438 -0.1875 -5.242188 -0.3125 -5.359375 C -0.488281 -5.546875 -0.597656 -5.691406 -0.640625 -5.796875 C -0.648438 -5.847656 -0.65625 -5.914062 -0.65625 -6 C -0.65625 -6.082031 -0.648438 -6.191406 -0.640625 -6.328125 C -0.597656 -6.703125 -0.441406 -7.117188 -0.171875 -7.578125 C 0.078125 -8.035156 0.394531 -8.457031 0.78125 -8.84375 C 1.34375 -9.414062 1.894531 -9.796875 2.4375 -9.984375 C 2.96875 -10.191406 3.484375 -10.210938 3.984375 -10.046875 C 4.222656 -9.960938 4.378906 -9.925781 4.453125 -9.9375 C 4.515625 -9.9375 4.625 -10.003906 4.78125 -10.140625 C 4.894531 -10.242188 5.003906 -10.3125 5.109375 -10.34375 C 5.210938 -10.394531 5.304688 -10.421875 5.390625 -10.421875 C 5.453125 -10.421875 5.519531 -10.410156 5.59375 -10.390625 C 5.644531 -10.378906 5.703125 -10.359375 5.765625 -10.328125 Z M 3.125 -8.796875 C 2.875 -8.722656 2.644531 -8.628906 2.4375 -8.515625 C 2.25 -8.378906 2.019531 -8.175781 1.75 -7.90625 C 1.46875 -7.601562 1.25 -7.347656 1.09375 -7.140625 C 0.957031 -6.941406 0.890625 -6.78125 0.890625 -6.65625 C 0.890625 -6.5625 1.023438 -6.601562 1.296875 -6.78125 C 1.566406 -6.96875 1.972656 -7.300781 2.515625 -7.78125 C 2.941406 -8.15625 3.210938 -8.425781 3.328125 -8.59375 C 3.453125 -8.757812 3.4375 -8.835938 3.28125 -8.828125 L 3.203125 -8.828125 C 3.179688 -8.828125 3.15625 -8.816406 3.125 -8.796875 Z M 3.125 -8.796875 "/></g></g></g></svg>